<svg xmlns="http://www.w3.org/2000/svg" xmlns:xlink="http://www.w3.org/1999/xlink" width="286.717" height="206.528" viewBox="0 0 286.717 206.528">
  <defs>
    <clipPath id="clip-path">
      <rect id="Rectangle_99" data-name="Rectangle 99" width="282.286" height="198.125" fill="#4cc8ef"/>
    </clipPath>
  </defs>
  <g id="for-friend" transform="scale(0.974 1)">
    <g id="Groupe_135" data-name="Groupe 135" clip-path="url(#clip-path)">
      <path id="Tracé_2950" data-name="Tracé 2950" d="M1272.182,543.866c-.008.013-.014.026-.024.04l.076.02Z" transform="translate(-1011.747 -432.537)" fill="#fff"/>
      <path id="Tracé_2951" data-name="Tracé 2951" d="M1271.144,542.565l.232.266c.1-.169.048-.271-.232-.266" transform="translate(-1010.941 -431.502)" fill="#fff"/>
      <path id="Tracé_2952" data-name="Tracé 2952" d="M70.1,194.149a15.3,15.3,0,0,0,2.446,1.295Z" transform="translate(-55.754 -154.407)" fill="#fff"/>
      <path id="Tracé_2953" data-name="Tracé 2953" d="M60.519,189.075a16.726,16.726,0,0,0-2.467-1.306Z" transform="translate(-46.169 -149.333)" fill="#fff"/>
      <path id="Tracé_2954" data-name="Tracé 2954" d="M106.05,159.536c.136.295,1.48,3.047,1.589,3.179Z" transform="translate(-84.342 -126.879)" fill="#fff"/>
      <path id="Tracé_2955" data-name="Tracé 2955" d="M146.988,160.6a26.256,26.256,0,0,0,1.445-3.179Z" transform="translate(-116.9 -125.195)" fill="#fff"/>
      <path id="Tracé_2956" data-name="Tracé 2956" d="M172.92,199.627l-.522.318c.114-.066.3-.179.522-.318" transform="translate(-137.108 -158.763)" fill="#fff"/>
      <path id="Tracé_2957" data-name="Tracé 2957" d="M174.949,193l2.8-1.7c-.392.182-1.914,1.154-2.8,1.7" transform="translate(-139.137 -152.139)" fill="#fff"/>
      <path id="Tracé_2958" data-name="Tracé 2958" d="M1313.71,464.06a103.4,103.4,0,0,0,13.3-.844Z" transform="translate(-1044.793 -368.396)" fill="#fff"/>
      <path id="Tracé_2959" data-name="Tracé 2959" d="M11.983,174.277c4.11,3.616,10.033,9.635,15.257,12.834,2.788,1.707,2.806,2.971,4.344,1.2,1.427-1.642,2.967-2.347,1.84-2.872,1.128.1,8.978-10.949,8.989-11,.38-2.047-1.261-2.5-3.046-2.544a44.053,44.053,0,0,0,4.243-3.177c2.4,1.738,4.574,2.816,5.748,2.333,4.47-1.839,30.472-21.792,46.722-33.1.566,4.227,1.149,7.2,1.643,7.2,8.263,0,14.591-.347,21.313-.652,8.52,11.292,18.181,18.1,55.5,30.461,0,0,.353-.7,1.057-2.049a12.857,12.857,0,0,0,5.266,1.526c-1.359.323-2.629-.583-3.108.11-.261.376-.264,2.625-.264,4.281,0,.841-.87,6.411-1.282,6.871a31.955,31.955,0,0,1-2.98,2.058c-.83.6-2.4.952-2.709,2.447a8.468,8.468,0,0,0-.506,2.566c-.6.972-1.364,4.627,2.034,4.482,4.7-.2,12.164,1.934,15.641-1.731,5.016-5.288,5.643-7.989,9.044-13.969,1.033-1.817,4.67-8.522,1.3-9.244-1.095-.234-1.153-.952-2.273-.559h0c-.274-.733-1.283-1.326-3.214-2.52-3.065-1.9-9.763-6.731-9.374-2.119a34.867,34.867,0,0,0-3.481-1.84q.534-.978,1.124-2.049c-1.21-1.561-15.487-9-25.844-19.327l40.25-.335c-1.367-4.377-17.891-34.568-35.239-61.592l.433-.009h-.439c-3.136-4.884-6.3-9.664-9.4-14.17,15.325,6.037,31.649,11.143,40.285,15.333.436.211.813-1.028,1.129-2.881v0c6.751.32,5.886,8.509,12.891,5.313a8.372,8.372,0,0,0,.9.356c.117.038.236.075.354.112l.219.149a60.529,60.529,0,0,0,11.681,4.762c-1.313,3.76-3.029,7.375-4.3,12.5l4.551-3.444c0-.563,2.471-7.873,3.349-10.759l.218.078a94.67,94.67,0,0,0-3.423,10.681c-1.908,2.43-6.972,4.347-3.769,4.9,9.839,1.7,36.4,9.548,42.346,9.548a15.731,15.731,0,0,0,5.109-3.064l-.481-.125c1.332-1.02,3.464-10.185,4.668-15.306l4.319-.274c-1.45.036-2.89.075-4.285.129.372-1.58.651-2.752.784-3.14a29.685,29.685,0,0,0,.914-3.6,25.244,25.244,0,0,0,5.048-.532l-4.989.237c1.606-8.161,2.715-22.234,3.845-24.62.484-1.023-6.682-1.239-8.19-1.721-2.321-.742-31.438-5.49-34.338-5.49-1.932.226-3.148,1.449-4.442,2.361-1.56,1.1-1.863,4.911-1.771,6.886a12.686,12.686,0,0,1-.016,1.308c-6.221-1.167-18.817-2.212-21.484,2.388a3.811,3.811,0,0,0-.8.755c-.121.154-.234.308-.341.464a49.192,49.192,0,0,1-6.343-.484s-1.112,0-1.233-.011h0c.112-1.653.169-2.788.169-2.788-6.462-2.114-32.877-13.318-52.251-22.3a.7.7,0,0,0,.272-.074l-.444-.006c-7.981-3.7-14.749-7.022-18.4-9.161a17.345,17.345,0,0,0-8.17-2.626c.012-.1.025-.193.039-.289,0-.033.009-.065.014-.1q.019-.131.04-.262c.006-.039.013-.077.019-.116q.021-.122.043-.243c.008-.042.016-.085.024-.127q.022-.114.046-.228c.009-.045.019-.09.029-.135q.024-.108.05-.216.017-.07.034-.139.026-.1.055-.207c.013-.047.026-.093.039-.14.019-.067.04-.133.06-.2.015-.046.029-.093.044-.139.021-.064.044-.128.066-.191.016-.045.032-.091.049-.136.023-.062.048-.123.073-.184.018-.044.035-.088.054-.131.026-.06.054-.119.081-.178.019-.041.038-.083.058-.123.03-.06.061-.117.092-.175.02-.037.039-.075.06-.111.035-.062.073-.122.111-.182.018-.029.036-.06.055-.089.058-.087.117-.172.18-.253a11.5,11.5,0,0,0,1.72-3.567c.05-.2.1-.415.149-.628a67.262,67.262,0,0,1,8.536,6.015c6.671,5.639,16.557,6.25,22.408-1.42,3.135-4.11,3.271-10.85,1.036-15.266-5.354-10.579-12.915-10.215-23.984-9.862C121.872,4.737,116.749,0,109.491,0,103.7,0,96.2,6.358,101.325,14.873a9.389,9.389,0,0,1,1.57-3.735c1.083-1.83,1.658-2.209,2.075-1.778a7.158,7.158,0,0,0-2.258,3.985c-.777,3.866-2.651,8.423-2.974,11.615a7.8,7.8,0,0,0,2.979,7.352,3.124,3.124,0,0,1,.837,2.727,13.217,13.217,0,0,1-.3,1.915,10.3,10.3,0,0,0-6.292,4.654c-4.188,6.184-12.684,16.8-18.648,20.982-2.958,2.072-5.379,2.993-8.892,1.979-2.577-.744-21.286-6.807-21.533-6.329-.078.15-.184.371-.311.646-.343-.206-1.189-.427-1.591-.686-3.014-1.952-3.3-2.094-5.425-5.333a5.23,5.23,0,0,0-4.638-2.529c-1.165-2.582-2.383-5.2-3.324-6.968-.969-1.819-2.264-2.858-3.446-1.779-.706.646-3.789,2.922-5.293,5-1.546,2.14-.829,4.016.1,6.13h0c-1.723.7-1.154,2.81-.445,4.116.8,1.481.735-.181.8,1.986.026.862,1.91,1.492,2.2,2.782A10.568,10.568,0,0,0,29.591,64.6l0-.009c.209.391.422.788.645,1.2,2.214,4.088,3.687,2.817,5.939-.3.143-.2.3-.423.454-.662.008.108.073.167.221.151,2.588-.282,6.506,1.3,7.507,1.1.263-.054,1.863-4.389,2.744-6.11-1.568,3.579-4.459,10.842-3.648,11.11,7.916,2.624,9.509,3.016,25.24,6.971,8.359,2.1,13.063,2.339,18.065-2.17,2.5-2.25,4.962-4.548,7.4-6.823-.268,10.5-.3,22.625-.339,31.366-16.651,13.933-61.138,57.41-60.082,58.808.439.581,1.007,1.259,1.664,1.99a25.364,25.364,0,0,0-4.025,4.125,17.4,17.4,0,0,0,.594-2.435c.022-.243-9.034.293-10.453.367l-.336-.132c-2.149-.395-11.422-5.533-11.66-5.544-2.046-.1-3.316-.012-3.987.364h0c-2.209.828-3.846,3.616-3.3,4.573a51.418,51.418,0,0,0,9.752,11.745m238.668-65.891a86.265,86.265,0,0,1,10.155,2.646Zm-25.12-31.757a75.473,75.473,0,0,1-3.444,11.984l.749-3.91c1.281-4.9,3.371-13.021,4.848-19.26-.968,4.987-2.013,10.451-2.152,11.186M37.85,54.65c.94,1.517,1.281,1.874,1.48,3.3A14.632,14.632,0,0,0,38.14,55.3l-.29-.654m1.305,6.1a2.24,2.24,0,0,0,.336-.819c-.014.658-.233.856-.925,1.769.212-.347.412-.671.589-.95M36.066,171.964a1.771,1.771,0,0,1-.374-.056c-3.52-1.052-4.53-2.652-4.621-4.3a14.555,14.555,0,0,0,5,4.357" transform="translate(-1.69)" fill="#fff"/>
      <path id="Tracé_2960" data-name="Tracé 2960" d="M480.351,681.81l2.185-.1q-.159-.209-.317-.421t-.313-.421l-1.595.074c-5.94.276-11.552.537-18.747.54-.288-.45-.743-2.44-1.3-6.563l-.4.28-.406.282c.507,3.568,1.038,6.158,1.536,6.669a.616.616,0,0,0,.447.2c7.278,0,12.932-.263,18.918-.541" transform="translate(-365.401 -536.762)"/>
      <path id="Tracé_2961" data-name="Tracé 2961" d="M482.8,12.877l.161-.271c.906-1.531,1.51-2.153,2.108-2.153a.894.894,0,0,1,.109.007c.023,0,.045.009.067.014-.249-2.373.224-4.128,1.32-4.531l.3.817c-.49.18-.931,1.292-.792,3.23q.017.239.047.495.028.239.067.493c.071.461.168.952.3,1.484.046.154.093.315.143.483a15.023,15.023,0,0,0,1.514,3.793,26.739,26.739,0,0,0,9.432,9.411l.391.248.391.246.454.285a63.05,63.05,0,0,1,7.87,5.6,16.658,16.658,0,0,0,12.387,4.1,13.48,13.48,0,0,0,9.393-5.452c2.861-3.75,3.3-10.254.994-14.805-5.169-10.213-12.346-9.983-23.21-9.635l-.372.012c-1.586.052-3.42-.784-5.537-1.751-2.8-1.28-6.29-2.872-10.407-2.872a10.235,10.235,0,0,0-8.4,4.952,8.429,8.429,0,0,0,.06,8.26,11.738,11.738,0,0,1,1.211-2.461" transform="translate(-382.133 -1.69)" fill="#4cc8ef"/>
      <path id="Tracé_2962" data-name="Tracé 2962" d="M101.3,91.007a4.7,4.7,0,0,0,.6,3.457,1.94,1.94,0,0,0,.715.859c.01.16.019.438.029.785l0,.147c.018.6.53,1.029,1.072,1.481a2.942,2.942,0,0,1,1.136,1.383c.15.673,2.308,2.75,3.178,3.228.186.348.376.7.574,1.067,1.017,1.876,1.919,2.743,2.927,2.808q.057,0,.114,0c1.309,0,2.466-1.448,3.633-3.065.075-.1.152-.214.231-.329a.815.815,0,0,0,.138,0,16.2,16.2,0,0,1,4.932.684,14.025,14.025,0,0,0,2.179.427c-1.374,3.834-1.158,4.365-1.059,4.608a.6.6,0,0,0,.368.357c7.824,2.594,9.416,2.994,24.644,6.822l.627.158a38.322,38.322,0,0,0,9.058,1.446,13.128,13.128,0,0,0,9.4-3.715c2.24-2.018,4.47-4.091,6.649-6.122-.225,9.448-.27,20.08-.3,28.21q0,.99-.008,1.926l.437-.365.437-.362c0-.393,0-.79,0-1.2.017-3.986.036-8.575.078-13.331,1.7.015,3.372.063,5.07.145a82.386,82.386,0,0,0-.847,11.133c.086-.052.17-.1.248-.146.053-.03.111-.059.172-.088a4.612,4.612,0,0,1,.427-.177c-.206-5.5,3.525-30.092,3.564-30.35l.038-.247-.194-.157a22.139,22.139,0,0,1-1.885-1.7q-.315-.322-.593-.637c-3.773-4.28-2.537-7.7-1.335-11.022.246-.678.5-1.38.7-2.071A49.714,49.714,0,0,1,182.2,77.27a2.434,2.434,0,0,1,1.956-.908,11.454,11.454,0,0,0-.136,6.091c.534,2.325,1.515,6.051,2.812,10.727.089.321.179.645.271.976,2.738,9.822,6.759,23.487,10.943,37.144l.132.43.109.356.023.074c-1.073.044-2.436.1-3.947.173-2.775.133-6.051.322-8.97.593a46.479,46.479,0,0,0-5.963.845,6,6,0,0,0-1.437.495h0l-.081.048a43.564,43.564,0,0,0-4.9,3.715l-.437.366-.437.369c-7.4,6.264-19.453,17.552-29.448,27.186-16.31,15.721-28.936,28.7-29.747,30.563.363.472.786.983,1.255,1.518q.142.162.289.326t.293.324a57.237,57.237,0,0,0,7.555,6.9q.183.136.364.267t.367.261c2.108,1.475,3.941,2.342,4.887,1.953,2.674-1.1,13.5-9.027,24.971-17.42,8.5-6.219,15.756-11.5,21.444-15.471l.41-.285.4-.28c5.65-3.918,9.643-6.441,11.619-7.157-.5-.98-1.05-2.091-1.619-3.23-1.407-2.819-3.158-6.326-3.458-6.67a.346.346,0,0,0,.13.083l.31-.813c.3.113.493.392,3.8,7.012.588,1.177,1.184,2.371,1.71,3.41l.051,0a.851.851,0,0,1,.142.011.713.713,0,0,1,.487.29c1.578,2.249,2.965,4.3,4.306,6.281,1.9,2.8,3.6,5.326,5.353,7.656l.319.421.323.421c8.333,10.793,18.276,17.539,54.426,29.533.141-.275.369-.719.683-1.322l.2-.387.2-.382c.824-1.573,2.051-3.885,3.674-6.864l.21-.384.21-.384q.375-.686.775-1.414a50.614,50.614,0,0,0-4.222-2.851c-5.366-3.437-14.2-9.1-21.274-16.111l.626-.005.6-.005,39.8-.332-.175-.56c-1.443-4.62-18.181-35-35.222-61.581v-.325h-.209c-2.84-4.425-5.688-8.742-8.472-12.813,5.871,2.285,11.773,4.406,17.493,6.461,8.787,3.157,16.376,5.884,21.441,8.342a.648.648,0,0,0,.623-.028c.224-.132.608-.363,1.054-2.776,2.588.255,3.916,1.782,5.2,3.265,1.219,1.409,2.394,2.767,4.45,2.767a7.256,7.256,0,0,0,2.885-.707c.105-.046.212-.095.32-.146q.337-.158.7-.35c.177.055.354.111.533.162a43.29,43.29,0,0,0,4.554,1.01c1.012.176,2.025.333,3.027.487,1.1.17,2.185.336,3.221.523q.647.117,1.27.246.215.045.427.093t.424.1c.694.165,1.356.35,1.978.565l.238.085.1.037.019-.052.065.022c.118.041.241.078.356.121l-.3.816c-.1-.037-.2-.073-.3-.108l-.213-.072-.2-.065c-.623-.2-1.282-.372-1.971-.527q-.211-.048-.425-.093l-.43-.088c-.162.546-.335,1.084-.516,1.616a66.061,66.061,0,0,1-8.146-3.079,35.411,35.411,0,0,1-3.67-.92l.175.12a61.606,61.606,0,0,0,11.355,4.7c-.362,1.011-.749,2.012-1.143,3.031a71.238,71.238,0,0,0-3.01,9.059l-.3,1.194.181-.137a.735.735,0,0,0,.012.084c.13.563.805.748,1.379.847,4.129.713,11.119,2.489,18.518,4.369,10.033,2.549,20.407,5.185,23.9,5.185.815,0,4.993-2.408,5.522-3.337a.584.584,0,0,0,.023-.612.528.528,0,0,0-.081-.1c1.1-1.941,2.392-6.852,4.181-14.464l.033-.141c1.461-.054,2.958-.092,4.439-.129a99.679,99.679,0,0,0,12.869-.837l-.146-.858a99.139,99.139,0,0,1-12.745.826c-1.4.035-2.82.071-4.21.121.3-1.267.53-2.22.641-2.543a28.57,28.57,0,0,0,.86-3.321,24.02,24.02,0,0,0,4.822-.536l-.264-.829a22.589,22.589,0,0,1-4.382.488c.711-3.685,1.322-8.481,1.881-12.873.665-5.222,1.293-10.154,1.882-11.4a.639.639,0,0,0-.018-.6c-.366-.655-2.01-.906-5.416-1.285a23.338,23.338,0,0,1-3.016-.438c-2.187-.7-29.3-5.182-34.044-5.494v-.07l-.46.054-.016,0c-.044.005-.086.013-.129.019a7.988,7.988,0,0,0-3.777,1.873c-.253.192-.492.374-.736.546-1.757,1.238-2.047,5.292-1.955,7.262.012.247.01.511,0,.782-6.3-1.1-18.539-2.085-21.4,2.6a4.258,4.258,0,0,0-.807.779c-.074.094-.143.189-.213.284-.641-.038-1.285-.065-1.915-.091a24.877,24.877,0,0,1-4.109-.366,1.313,1.313,0,0,0-.337-.014l-.538,0c.091-1.389.139-2.319.14-2.338l.017-.332-.316-.1c-6.346-2.076-32.9-13.32-52.333-22.335l.023-.01-.029.007c-7.952-3.689-14.71-7-18.4-9.165a18.377,18.377,0,0,0-7.893-2.657,8.064,8.064,0,0,1,1.265-3.617,11.881,11.881,0,0,0,1.8-3.729l.01-.04-.389-.244-.389-.245a27.685,27.685,0,0,1-9.964-9.849,15.721,15.721,0,0,1-1.612-4.013c-.138-.473-.309-1.056-.472-1.445a1.209,1.209,0,0,0-.226-.394.165.165,0,0,0-.038-.027c-.022.006-.374.079-1.35,1.729l-.163.274c-.258.431-.529.889-.764,1.381-.019.081-.04.162-.057.245-.168.837-.39,1.712-.636,2.6l-.038.333-.038-.063c-.226.8-.468,1.605-.708,2.4a37.266,37.266,0,0,0-1.56,6.389,8.2,8.2,0,0,0,3.121,7.719,2.728,2.728,0,0,1,.694,2.388A11.094,11.094,0,0,1,181.642,74a11.009,11.009,0,0,0-6.285,4.784c-3.927,5.8-12.432,16.593-18.537,20.87-2.8,1.963-5.1,2.907-8.521,1.917-.652-.188-2.364-.726-4.531-1.406-3.119-.979-7.391-2.32-10.822-3.346-6.4-1.913-6.472-1.773-6.686-1.359-.038.074-.083.165-.134.271-.1-.042-.215-.083-.333-.127a5,5,0,0,1-.811-.35l-.193-.125c-2.783-1.8-3.074-1.99-5.1-5.082a5.645,5.645,0,0,0-4.72-2.724c-1.133-2.506-2.306-5.021-3.222-6.739-.532-1-1.4-2.228-2.527-2.422a1.84,1.84,0,0,0-1.6.527c-.147.134-.416.354-.756.631a27.334,27.334,0,0,0-4.6,4.438c-1.589,2.2-.978,4.158-.106,6.185a2.045,2.045,0,0,0-.862,1.067m63.919,21.962c-4.835,4.357-9.358,4.16-17.667,2.071l-.627-.157c-15.1-3.8-16.768-4.215-24.432-6.755a10.568,10.568,0,0,1,.692-2.77c2.845.164,11.393.206,21.277.253,9.565.046,20.588.1,28.028.284q0,.19-.01.381c-2.371,2.213-4.813,4.488-7.261,6.694M257.682,100.1a5.715,5.715,0,0,1-.906.081,67.1,67.1,0,0,0-10.987.743c-1.247.155-2.537.314-3.817.446-5.444.562-10.977.846-16.463,1.032-1.17-.577-2.53-1.226-3.982-1.9a104.024,104.024,0,0,0-10.381-4.339l-.217.843a127.376,127.376,0,0,1,12.707,5.454c-2.315.07-4.618.127-6.9.182q-2.167.053-4.357.11l-.5.013-.5.014c-2.565.072-5.146.157-7.731.274l-.451.021-.45.021c-3.984.192-7.974.465-11.924.887-1.12-3.859-2.139-7.43-3.018-10.581q-.141-.506-.278-1c-1.117-4.026-1.984-7.3-2.51-9.5.95.119,2.63.219,4.589.3l1,.04c.826.031,1.685.059,2.547.085l.793.023.841.023.389.01.482.012.488.012c3.115.073,5.793.11,6.461.119,2.788.037,5.47.055,7.857.055,1.411,0,2.718-.006,3.883-.02,3.151-.035,4.556-.107,5.215-.19,12.194,5.651,27.119,12.152,38.122,16.728m13.759,5.434c-.04.758-.085,1.522-.135,2.281l-1.015,9.867a7.9,7.9,0,0,1-.639,2.4c-2.567-1.237-5.754-2.539-9.4-3.926a51.892,51.892,0,0,1,9.693-1.094v-.87c-1.676,0-8.963.484-10.92,1.5-3.285-1.234-6.909-2.537-10.763-3.921-6.026-2.165-12.253-4.4-18.429-6.828-.125-.262-.653-.655-2.641-1.688l-.075-.039c4.982-.187,9.994-.469,14.939-.979,1.29-.133,2.584-.294,3.835-.449a65.294,65.294,0,0,1,10.845-.737,9.29,9.29,0,0,0,2.352-.366c5.609,2.319,10.049,4.071,12.348,4.849m-46.578,57.034a31.008,31.008,0,0,1-1.2-4.676c-.232-1.251-3.294-11.489-3.976-13.764a78.826,78.826,0,0,1,10.442-.742c7.072-.145,9.581.316,9.963.6.178.669,1.005,2.493,2.136,4.985,1.707,3.763,4.045,8.916,5.308,12.7.007.021.013.041.02.062.1.3.188.586.271.868.834,2.834.845,4.8.032,5.972a3.913,3.913,0,0,1-3.305,1.4c-11.262.447-16.569.236-19.365-6.547q-.17-.413-.328-.858m23.5-1.177c-1.277-3.825-3.626-9-5.341-12.782-1.06-2.338-1.976-4.357-2.1-4.882a.816.816,0,0,0-.444-.522c-2.458-1.354-19.415-.524-21.485.208l-.391.138.119.4c.038.128,3.835,12.77,4.083,14.1a31.672,31.672,0,0,0,1.156,4.548l-.913.032-.463.016-.457.016c-.509.017-1.019.031-1.529.047l-.444.013-.448.013c-3.361.094-6.736.155-10.194.155v.87c3.536,0,6.983-.063,10.415-.161l.447-.013.444-.013q.809-.024,1.618-.051l.455-.016.459-.016.927-.032a10.454,10.454,0,0,0,5.253,6.076c2.386,1.134,5.4,1.455,9.308,1.455,1.732,0,3.639-.063,5.745-.147a4.766,4.766,0,0,0,3.987-1.78c.944-1.366,1-3.492.156-6.474,3.212-.021,6.691,0,9.921.015,1.94.01,3.773.02,5.382.02,4.916,8.851,8.34,15.487,9.311,17.924l-39.468.329-.592,0-.615.005-4.8.04-.514,0-.521,0-11.078.092c-2.286-4.42-7.841-21.07-13.648-39.63,2.854-.374,5.793-.557,8.734-.66l.521-.018.521-.016q1-.03,2-.051l.449-.009.448-.009q1.066-.02,2.125-.037c4.222-.07,8.587-.143,12.857-.557a87.185,87.185,0,0,1,10.548-.024,85.982,85.982,0,0,0,10.595-.032l-.009-.091c4.728,7.9,9.058,15.429,12.642,21.859-1.487,0-3.146-.011-4.893-.02-3.319-.018-6.9-.037-10.188-.013-.035-.11-.068-.218-.106-.33m2.1-22.239a90.639,90.639,0,0,1-10.11,0,87.823,87.823,0,0,0-10.663.027c-4.235.41-8.582.483-12.787.553q-1.168.02-2.347.042l-.448.009-.449.01q-1.184.026-2.372.063l-.523.018-.526.019c-2.822.11-5.64.3-8.387.666-.791-2.532-1.586-5.1-2.377-7.668l-.132-.428-.1-.336-.028-.092-.1-.338-.132-.43c-1.1-3.577-2.184-7.155-3.24-10.666a38.54,38.54,0,0,1,4.415-.416,1.921,1.921,0,0,0-.569,1.345h0c-.071.6.3,2.3,1.163,2.763a1,1,0,0,0,.467.12,1.112,1.112,0,0,0,.73-.3c.76-.648.565-1.888.167-2.753a2.665,2.665,0,0,0-1-1.225c1.993-.094,4.349-.165,6.9-.217l.452-.009.451-.009c3.021-.056,6.279-.088,9.506-.1l.449,0,.444,0c5.947-.026,11.7,0,15.587.011,1.418.005,2.631.01,3.586.012,4.12,6.423,8.174,12.994,11.98,19.34m-48.994-17.039c.15.479.2,1.082-.092,1.335-.139.118-.188.092-.221.074a2.832,2.832,0,0,1-.709-1.893,1.415,1.415,0,0,1,.219-.744,2.1,2.1,0,0,1,.8,1.228m33.432-3.184c-4.157-.016-9.9-.038-15.759-.012l-.45,0-.453,0c-3.272.017-6.553.05-9.586.108l-.452.009-.451.009a100.559,100.559,0,0,0-12.265.712c-1.566-5.215-3.06-10.267-4.416-14.926,3.96-.419,7.963-.689,11.961-.879l.45-.021.451-.021c2.659-.119,5.314-.2,7.951-.276l.5-.013.5-.013q1.948-.051,3.88-.1c2.828-.069,5.688-.139,8.563-.235,1.558.769,2.789,1.417,3.385,1.8l.256.372c2.974,4.316,5.985,8.858,8.964,13.486l-3.023-.01M195.718,82.522l-.493-.012-.485-.013-1.293-.036-.743-.022-.713-.023c-.664-.022-1.3-.044-1.9-.068q-.594-.023-1.139-.048c-2.055-.092-3.548-.193-4.141-.3a10.344,10.344,0,0,1,.253-5.61c.051-.143.109-.282.167-.42s.124-.28.191-.417h0c.055-.11.109-.221.168-.328l.037-.063.015-.024c.069-.119.142-.236.218-.35.012-.018.022-.037.034-.055.056-.084.117-.163.177-.244.035-.048.069-.1.106-.142a6.892,6.892,0,0,1,1.37-1.342,8.262,8.262,0,0,1,4.857-1.513l.151,0c.094,0,.19,0,.285.006q.217.006.436.019a17.467,17.467,0,0,1,7.566,2.544c3.493,2.044,9.721,5.118,17.108,8.564-4.078.169-14.192.1-22.236-.1m-15.25,22.908c-1.054-.138-2.953-.245-5.452-.331-.4-.014-.809-.026-1.235-.039l-.4-.011c.029-1.029.06-2.04.094-3.026.038-1.118.062-2.285.087-3.521.068-3.352.144-7.032.548-10.465,1.112-.005,2.224,0,3.108.01-.091.258-.184.518-.281.785-1.238,3.422-2.617,7.235,1.51,11.9q.279.316.593.637a22.514,22.514,0,0,0,1.786,1.633c-.062.412-.19,1.261-.361,2.422m-2.842-18.618c-.036.123-.076.246-.115.369-.855-.012-2.053-.025-3.289-.021.654-4.8,2.021-9,5.014-10.972a7.054,7.054,0,0,1,2.143-.938c-.268,1.255-.381,1.857-.221,2.165a50.091,50.091,0,0,0-3.532,9.4M173.1,121.506c.046-4.961.119-10.07.239-14.844.007-.249.013-.5.019-.745l.757.021c2.924.087,5.129.2,6.227.346-.545,3.729-1.407,9.806-2.076,15.37-1.731-.084-3.429-.133-5.165-.148m162.646,29.909c-3.386,0-13.707-2.623-23.687-5.159-7.417-1.884-14.422-3.665-18.585-4.383a1.893,1.893,0,0,1-.66-.2,8.186,8.186,0,0,1,1.715-1.435,18.3,18.3,0,0,0,2.6-2.131c1.341,1.025,6.389,2.251,14.88,4.065,1.87.4,3.347.715,3.733.842,1.7.558,5.858,1.487,10.264,2.47,5.475,1.222,12.974,2.9,13.651,3.508a.76.76,0,0,0,.2.129,18.5,18.5,0,0,1-4.109,2.292m9.794-50.691a22.308,22.308,0,0,1,4.678.8c-.623,1.542-1.213,6.174-1.892,11.508-.569,4.465-1.191,9.347-1.911,13.019-2.089.071-4.2.057-5.247-.035l-.076.867c.584.051,1.577.08,2.74.08.752,0,1.575-.012,2.4-.037a26.689,26.689,0,0,1-.788,3.005c-.13.38-.379,1.413-.72,2.86a62.834,62.834,0,0,0-6.99.6l.138.859a60.628,60.628,0,0,1,6.646-.574c-.617,2.624-1.454,6.18-2.294,9.154a22.267,22.267,0,0,1-1.891,5.227l-.586.011c-1.6-.727-6.364-1.819-13.554-3.424-4.385-.979-8.526-1.9-10.182-2.447-.431-.142-1.854-.446-3.823-.866-2.6-.556-6.166-1.317-9.126-2.071-4.318-1.1-5.249-1.657-5.447-1.852a87.851,87.851,0,0,1,3.126-9.82,82.442,82.442,0,0,0,3.97-13.455c.253-1.335,1.231-6.444,2.138-11.118.891-3.766,1.564-6.875,1.705-8.21,4.639.308,31.9,4.846,33.8,5.453a22.483,22.483,0,0,0,3.185.474m-54.109,3.612h.009a60.3,60.3,0,0,1,10.021.924v.011l.43.075.432.079.278.053c.7.145,1.3.288,1.743.419l.009-.03c.136.035.261.07.373.1l-.245.835c-.548-.16-1.319-.34-2.249-.52l-.429-.08-.427-.076c-.108.9-.273,1.873-.475,2.882-1.294-.2-3.014-.652-4.97-1.165a53.507,53.507,0,0,0-10.462-2.034,10.322,10.322,0,0,0-2.9,1.064c3.449-.732,8.888.7,13.139,1.811,1.956.514,3.679.966,5.014,1.177-.392,1.829-.88,3.744-1.34,5.555a60.3,60.3,0,0,0-1.346,6,29.237,29.237,0,0,1-.582,3.126c-1.44-.3-2.98-.544-4.572-.788a59.724,59.724,0,0,1-7.53-1.49.724.724,0,0,0,0-.311q-.219-.006-.453-.016l-.447-.02-.217-.011c-.231-.013-.467-.027-.7-.043-.348-.024-.7-.051-1.043-.08l-.384-.035-.057-.006c-.358-.034-.7-.071-1.016-.109a7.34,7.34,0,0,1-1.651-.314l.4-.774-.007,0a2.85,2.85,0,0,0,.51.112c.176.028.388.058.627.087l.233.028.345.038c.281.03.582.06.894.088l.1.009c.76.067,1.573.126,2.3.162.215.011.42.019.615.026.272.009.521.014.737.012.135-.087.29-.183.473-.29.91-.531.718-1.419.549-2.2a3.267,3.267,0,0,1,.271-2.719c.789-1.228-1.7-5.689-1.728-5.732-.716-1.182-2.525-1.686-4.627-1.934q-.269-.032-.544-.058l.015-.049a3.219,3.219,0,0,1,.224-.521,4.139,4.139,0,0,1,1.49-1.518l.094-.051-.021,0c2.217-1.355,5.937-1.7,9.107-1.7M174.67,81.285a29.889,29.889,0,0,0-1.323,5.88c-1.206.011-2.378.041-3.23.1,1.7-2.12,3.264-4.184,4.553-5.983M126.921,96.078c1.67.231,11.67,3.371,16.586,4.914,2.173.682,3.889,1.221,4.55,1.412,3.744,1.081,6.32.02,9.262-2.041,3.659-2.563,8.153-7.41,12.036-12.156a33.868,33.868,0,0,1,3.882-.164c-.4,3.444-.475,7.1-.543,10.441-.025,1.233-.049,2.4-.087,3.508-.034.989-.065,2-.094,3.033-7.327-.185-18.095-.237-28.048-.286-9.6-.046-17.94-.087-20.985-.239.794-2.238,1.9-4.979,2.724-6.852a4.523,4.523,0,0,1,.306-.541.747.747,0,0,0,.075-.136.579.579,0,0,0,.335-.49.513.513,0,0,0-.065-.267l.066-.137M102.973,84.265a26.672,26.672,0,0,1,4.441-4.274c.35-.286.627-.512.792-.663a1.06,1.06,0,0,1,.715-.324.862.862,0,0,1,.146.013c.6.1,1.293.822,1.907,1.973.867,1.627,1.972,3.986,3.053,6.371l-.169.021c-1.639.232-3.286,1.113-3.526,1.886a1.934,1.934,0,0,0,.128,1.839c.575.731,1.766.656,3.027.576,1.071-.068,2.285-.144,2.615.4l.116.189.278.627c.034.076.09.179.174.334a11.783,11.783,0,0,1,.991,2.256c.031.236.06.5.087.811a9.686,9.686,0,0,1,.059,1.011,1.778,1.778,0,0,1-.259.612l-.007.01c-.176.277-.374.6-.583.94-.145.192-.309.411-.5.677l-.128.175a6.91,6.91,0,0,0-1.383,2.378c-.132.2-.26.384-.379.55-1.2,1.66-2.166,2.754-2.985,2.7-.657-.043-1.383-.812-2.218-2.354-.221-.408-.432-.8-.639-1.188l-5.611-11.85c-.913-2.071-1.551-3.752-.147-5.7" transform="translate(-80.445 -37.416)" fill="#090954"/>
      <path id="Tracé_2963" data-name="Tracé 2963" d="M62.233,189.2l.285-.822a14.6,14.6,0,0,1-2.309-1.224,17.452,17.452,0,0,0-2.594-1.374l-.3.816a16.928,16.928,0,0,1,2.45,1.3,15.037,15.037,0,0,0,2.472,1.3" transform="translate(-45.579 -147.748)"/>
      <path id="Tracé_2964" data-name="Tracé 2964" d="M106.439,161.729a.266.266,0,0,1,.019.025c-.143-.222-1.4-2.779-1.548-3.108l-.791.364c.013.029,1.475,3.064,1.65,3.274Z" transform="translate(-82.806 -126.171)"/>
      <path id="Tracé_2965" data-name="Tracé 2965" d="M146.216,159.785a12.684,12.684,0,0,0,1.1-2.536l-.862-.118a16.33,16.33,0,0,1-1.02,2.263c-.168.335-.313.624-.391.8l.794.356c.07-.156.211-.437.374-.762" transform="translate(-115.357 -124.966)"/>
      <path id="Tracé_2966" data-name="Tracé 2966" d="M172.952,191.434c.77-.483,1.825-1.144,2.107-1.275l-.366-.79c-.308.143-1.108.64-2.2,1.327-.488.306-.948.595-1.154.713l.435.754c.219-.126.665-.406,1.182-.73" transform="translate(-136.263 -150.605)"/>
      <path id="Tracé_2967" data-name="Tracé 2967" d="M548.414,280.458a1.424,1.424,0,0,0-1.656.352,1.853,1.853,0,0,0,.193,2.219,2.857,2.857,0,0,0,2.116,1.445,1.019,1.019,0,0,0,.256-.031.7.7,0,0,0,.546-.618c.208-2.5-1.061-3.209-1.455-3.367m.6,3.144a2.2,2.2,0,0,1-1.337-1.057c-.4-.6-.388-1.006-.241-1.186a.566.566,0,0,1,.655-.094c.506.2,1,.924.923,2.337" transform="translate(-434.608 -222.952)"/>
      <path id="Tracé_2968" data-name="Tracé 2968" d="M565.365,343.382c-.708.176-.819,1.216-.855,1.558-.046.43.018,2.1,1.167,2.432a1.952,1.952,0,0,0,.541.084,1.045,1.045,0,0,0,.888-.419c.538-.739.063-2.136-.445-2.892-.544-.808-1.045-.825-1.3-.763m1.023,3.158c-.062.063-.243.061-.472,0-.5-.145-.569-1.237-.541-1.5h0a1.776,1.776,0,0,1,.2-.79,2.517,2.517,0,0,1,.783,1.294c.175.578.112.917.027,1" transform="translate(-448.946 -273.074)"/>
      <path id="Tracé_2969" data-name="Tracé 2969" d="M605.319,472.3a5.068,5.068,0,0,0-.293-.683c-.268-.514-.7-1.087-1.3-1.125-.021,0-.04-.006-.061-.006h-.013a.946.946,0,0,0-.479.138,2.359,2.359,0,0,0-.868,1.38,4.755,4.755,0,0,0,.63,2.688,2.742,2.742,0,0,0,1.483.6,1.052,1.052,0,0,0,.649-.211c.629-.472.592-1.56.345-2.467-.029-.108-.061-.215-.1-.316m-.772,2.087c-.092.069-.413.065-1.046-.364a6.4,6.4,0,0,1-.359-1.77c.229-.729.461-.9.524-.9h0c.14,0,.536.368.828,1.224.327.959.24,1.665.052,1.806" transform="translate(-478.994 -374.181)"/>
      <path id="Tracé_2970" data-name="Tracé 2970" d="M10.006,785.067c1.026.9,2.171,1.96,3.383,3.081,3.742,3.458,7.982,7.378,11.934,9.8a16.591,16.591,0,0,1,1.806,1.294,2.793,2.793,0,0,0,1.556.825c.446,0,.914-.286,1.538-1A15.708,15.708,0,0,1,31.48,797.8c.694-.64,1.152-1.062,1.07-1.591a.732.732,0,0,0-.07-.212,34.972,34.972,0,0,0,4.514-5.276c.559-.733,4.1-5.466,4.157-5.746a2.348,2.348,0,0,0-.437-2.071,3.016,3.016,0,0,0-1.794-.875c.884-.619,1.977-1.43,3.026-2.3q-.183-.129-.367-.264t-.363-.268a60.183,60.183,0,0,1-7.535-6.916c-.1-.109-.2-.216-.294-.323s-.2-.218-.291-.324a33.325,33.325,0,0,0-2.481,2.373,5.259,5.259,0,0,0,.1-.6l.014-.208-.138-.143c-.209-.216-.324-.335-9.936.2l-.755.042-.248-.1-.08-.023c-1.476-.271-6.715-3.012-9.53-4.484-2.025-1.059-2.038-1.06-2.189-1.067-2.253-.1-3.518.008-4.238.422a6.517,6.517,0,0,0-3.425,3.547,1.949,1.949,0,0,0-.023,1.617,51.89,51.89,0,0,0,9.842,11.855M7.744,768.492c.218.1,1.032.522,1.891.972,3.916,2.048,8.212,4.254,9.733,4.56l.386.151.094,0,.852-.046c5.009-.278,8.056-.405,9.084-.383-.071.363-.187.769-.308,1.191-.064.222-.13.456-.194.7a7.7,7.7,0,0,0-.315,2.6c.149,1.73,1.253,3.463,4.912,4.557a2.019,2.019,0,0,0,.388.068,9.586,9.586,0,0,0,1.243-.006l.312-.016c.352-.018.735-.037,1.124-.046.282-.006.567-.006.845.005a3.262,3.262,0,0,1,2.268.687,1.465,1.465,0,0,1,.25,1.257c-.859,1.3-7.395,10.255-8.58,10.728-1.687-.214-7.393-4.358-14.256-10.358C10.845,779.311,5.39,773.756,4.5,771.9c-.541-1.133-1.048-2.359-.712-2.865.3-.456,1.429-.573,2.661-.573.428,0,.87.014,1.293.033m-6.739,3.4a5.768,5.768,0,0,1,1.81-2.382,7.485,7.485,0,0,0,.9,2.763c1.1,2.316,7.609,8.616,13.184,13.49,2.735,2.391,11.8,10.144,14.7,10.558a.782.782,0,0,1,.072.042,5.5,5.5,0,0,1-.778.8,16.606,16.606,0,0,0-1.324,1.326c-.426.49-.7.72-.9.705a2.7,2.7,0,0,1-.994-.635,17.582,17.582,0,0,0-1.895-1.356c-3.879-2.375-8.086-6.263-11.8-9.694-1.216-1.124-2.365-2.186-3.4-3.1A50.918,50.918,0,0,1,.919,772.78a1.221,1.221,0,0,1,.086-.89" transform="translate(0 -610.463)" fill="#4cc8ef"/>
      <path id="Tracé_2971" data-name="Tracé 2971" d="M817.966,836.539a2.636,2.636,0,0,0,2.623,1.189,37.04,37.04,0,0,1,4.367.2c1.423.117,2.91.239,4.358.239,2.806,0,5.463-.459,7.213-2.3a37.084,37.084,0,0,0,6.907-9.982c.62-1.186,1.323-2.531,2.2-4.072,1.342-2.359,3.454-6.629,2.52-8.714a2.04,2.04,0,0,0-1.509-1.171,2.35,2.35,0,0,1-.794-.344,1.683,1.683,0,0,0-1.353-.3,10.26,10.26,0,0,0-2.9-2.193l-.3-.186c-.338-.209-.72-.454-1.131-.718-3.617-2.317-6.73-4.15-8.218-3.1a1.737,1.737,0,0,0-.683,1.309c-.69-.4-1.51-.834-2.447-1.278l-.21.384-.21.384c-1.625,2.982-2.855,5.3-3.681,6.875l-.2.384-.2.387c.51.235,1.09.483,1.7.7a1.171,1.171,0,0,0-.089.112c-.292.422-.342,1.738-.342,4.528a39.189,39.189,0,0,1-1.182,6.593,4.817,4.817,0,0,1-1.013.731c-.448.278-1.061.659-1.885,1.253a6.141,6.141,0,0,1-.708.408,3.485,3.485,0,0,0-2.172,2.3c-.03.141-.094.359-.163.59a6.123,6.123,0,0,0-.366,1.974,4.428,4.428,0,0,0-.122,3.818m1.5-6.2c.189-.905.969-1.314,1.724-1.709a6.737,6.737,0,0,0,.813-.473c.8-.576,1.374-.933,1.835-1.219a6.222,6.222,0,0,0,1.1-.785c.548-.087,2.176-.361,2.389-.4,2.609-.44,2.609-.44,2.724-.572l-.345-.3-.092-.406c-.2.046-2.9.5-4.224.72a45.877,45.877,0,0,0,1.054-6.323,24.382,24.382,0,0,1,.186-4.033c.091-.132.406-.084.915.01a4.647,4.647,0,0,0,1.889.065,3.922,3.922,0,0,0,2.6-2.483,10.758,10.758,0,0,0,.451-1.112l.063-.181a5.6,5.6,0,0,0,.416-1.791,1.667,1.667,0,0,0-.392-1.11,1.988,1.988,0,0,0-.328-.308c-.036-.17-.064-.33-.086-.483a4.962,4.962,0,0,1-.051-.547c-.017-.555.094-.936.333-1.1,1.129-.8,5.109,1.754,7.246,3.123.416.267.8.514,1.144.725l.3.187c1.686,1.041,2.615,1.615,2.76,2.2s-.4,1.539-1.4,3.268c-.51.885-1.145,1.985-1.88,3.371l-.053.1c-6.6,12.46-9.224,13.924-10.044,13.975l-.028,0c-7.133.444-10.937.264-11.542-.1a5.907,5.907,0,0,1,.337-1.651c.077-.26.144-.484.181-.66M845.4,812.323a3.169,3.169,0,0,0,1.065.452,1.159,1.159,0,0,1,.9.676c.559,1.248-.369,4.211-2.482,7.927-.884,1.554-1.591,2.906-2.215,4.1a36.371,36.371,0,0,1-6.767,9.786c-2.366,2.494-6.883,2.123-10.869,1.8a37.674,37.674,0,0,0-4.475-.2,1.854,1.854,0,0,1-1.835-.759,3.457,3.457,0,0,1-.01-2.628,15.241,15.241,0,0,0,4.586.414c1.75,0,4.1-.078,7.254-.275l.028,0c2.133-.133,5.752-4.99,10.759-14.436l.053-.1c.727-1.372,1.358-2.465,1.865-3.344,1.021-1.771,1.576-2.8,1.537-3.616a.93.93,0,0,1,.608.209" transform="translate(-650.22 -640.04)" fill="#4cc8ef"/>
    </g>
  </g>
</svg>
