<svg xmlns="http://www.w3.org/2000/svg" xmlns:xlink="http://www.w3.org/1999/xlink" width="201.655" height="209.723" viewBox="0 0 201.655 209.723">
  <defs>
    <clipPath id="clip-path">
      <rect id="Rectangle_100" data-name="Rectangle 100" width="213.161" height="203.438" fill="#070740"/>
    </clipPath>
  </defs>
  <g id="for-coloc" transform="translate(0 0) scale(0.974 1)">
    <g id="Groupe_136" data-name="Groupe 136" clip-path="url(#clip-path)">
      <path id="Tracé_2972" data-name="Tracé 2972" d="M199.03,684.392c-2.98.109-7.089.1-11.156.016h0c-7.378-.158-14.617-.583-14.716-1.073-1-.176-.628-35.058.171-37.276.871-2.419,9.769-1.176,12.364-1.176,3.166,0,7.869-.162,11.052.083,2.565.2,4.889.755,5.046,3.636.467,8.568.046,22.287.03,32.024,0,2.452.1,3.661-2.791,3.766" transform="translate(-32.482 -481.573)" fill="#fff"/>
      <path id="Tracé_2973" data-name="Tracé 2973" d="M136.936,378.762c-4.679-2.454-3.91-6.56-7.249-10.222l10.194,6.547c2.013,2.738-.335,5.044-2.946,3.675" transform="translate(39.728 -275.347)" fill="#fff"/>
      <path id="Tracé_2974" data-name="Tracé 2974" d="M201.013,94.508l-7.392-20.963L188.87,94.878l-8.712-1.6a106.448,106.448,0,0,1,4.894,13.71c2.073,7.4,6.49,35.628,4.515,40.813l-1.9.015c.682,1.007,16.821,17.306,10.3,16.7a122.458,122.458,0,0,0-15.715-.431c-.784.03-7.665.016-14.764-.14-.886-.019-2.533-3.523-3.414-3.547-1.027-.028-1.285,3.422-2.273,3.387-5.8-.207-10.6-.538-10.736-1.056-.112-.434-1-12.479-1.111-14.62l-.184,0,.182-7.345-8.109,1.27c1.06,17.379,2.169,40.272.949,43.476H134c3.28,2.969,19.577,16.75,12.167,16.193a186.149,186.149,0,0,0-19.383-.431c-.967.03-9.454.016-18.21-.14-1.092-.019-3.125-3.523-4.211-3.547-1.267-.028-1.585,3.422-2.8,3.387-7.155-.207-13.077-.538-13.242-1.056-.148-.467-1.411-14.38-1.382-14.93h.053c-.354-3.024.109-18.6.21-28.61-.323,1.032-29.25.394-32.177.394-19.133,0-24.376-12.4-27.717-28.635-3.183-15.474-6.787-38.664-6.99-43.9-.27-7,6.438-13.175,13.845-14.1,6.557-.823,26.827-.971,33.892-.333h0c9.457-18.624,19.652-23.177,26.3-20.984.057-1.272.162-2.534.314-3.757.348-2.792.61-6.84.782-10.742a6.283,6.283,0,0,1-1.393.174c-2.221,0-4.85-11.806-5.529-14.115-1.153-3.922-.614-8.985,2.694-11.52,4.434-3.4,17.45-8.288,22.233-6.328,8.213,3.365,5.491,10.171.089,11.884h0a26.519,26.519,0,0,1,4.78,7.7,4.2,4.2,0,0,1,2.509-.835,4.363,4.363,0,0,1,0,8.724c-.044,0-.086-.005-.13-.007a52.84,52.84,0,0,1,.98,9.351c.123,6.561-10.21,6.663-10.24,6.913-.257,2.1-2.156,8.323-2.66,12.169v0c2.652-1.375,7.608-2.1,17.668-.236L136,59.971a16.935,16.935,0,0,0,2.111-1.856c3.249-3.313-.76-10.251,6.514-12.565.069-.367.134-.743.191-1.127l3.492-21.13c.288-.864.662-3.073,3.047-2.8L162.731,22c3.831.446,3.163,2.747,2.62,6l-1,6.8c3.741.743-.116,8.746-.563,10.147,2.748-5.729,4.561-.444,2.455,4.961-1.884,4.833-3.212,9.062-8.023,14.189l36.018,6.674-.62,2.783c9.981,1.435,19,6.739,23.284,13.286l10.183-1.623.71,3.288-9.22,1.554a13.286,13.286,0,0,1,.947,5.336c-.111,2.941-3.241,1.864-3.4,3.561-.351,3.778-5.031,3.592-5.452,1.1.051.23.66,4.273-.626,5.819-1.528,1.837-4.421,2.16-5.688-1.788a3.394,3.394,0,0,1,.055.452M142.575,86.394l-10.141,6.18a106.837,106.837,0,0,1,4.748,12.842c1.822-3.785,3.5-7.4,3.856-8.17a48.05,48.05,0,0,1,6.382-9.964ZM87.2,156.382c.018-1.785.025-3.39.013-4.719l-1.039.08Z" transform="translate(-19.773 -1.557)" fill="#fff"/>
      <path id="Tracé_2975" data-name="Tracé 2975" d="M465.347,83.87a4.815,4.815,0,1,1,4.814,4.9,4.863,4.863,0,0,1-4.814-4.9m4.814,3.824a3.825,3.825,0,1,0-3.739-3.824,3.787,3.787,0,0,0,3.739,3.824" transform="translate(-379.486 -59.002)" fill="#090954"/>
      <path id="Tracé_2976" data-name="Tracé 2976" d="M3.522,141.749c6.368,5.166,6.058,6.563,4.225,9.841a22.089,22.089,0,0,0-1.594,3.319l-1.009-.372a23.338,23.338,0,0,1,1.664-3.472c1.556-2.782,2.026-3.622-3.963-8.481C1.005,141.091.076,139.591,0,138c-.124-2.76,2.323-5.139,4.913-7.658,2.606-2.534,5.3-5.154,5.033-8.04-.2-2.137-1.971-4.292-5.423-6.587-4.735-3.149-3.263-6.644-1.84-10.025a14.179,14.179,0,0,0,1.475-5.317H5.239a14.97,14.97,0,0,1-1.56,5.734c-1.425,3.384-2.55,6.056,1.444,8.712,3.739,2.486,5.668,4.9,5.9,7.384.314,3.4-2.567,6.2-5.354,8.91-2.412,2.346-4.691,4.561-4.588,6.839.057,1.27.857,2.514,2.444,3.8" transform="translate(202.117 -74.989)" fill="#4cc8ef"/>
      <path id="Tracé_2977" data-name="Tracé 2977" d="M243.964,659.362c.3,2.839.338,6.738.338,9.816v.371c0,1.819,0,2.732-.6,3.3a2.392,2.392,0,0,1-1.75.478c-.255,0-.538-.011-.852-.029-.461-.026-1.108-.028-1.792-.031a24.76,24.76,0,0,1-2.644-.088c-1.98-.268-2.53-.692-2.675-2.06-.008-.073-.186-10.594-.038-11.412.41-2.266,1.733-2.235,4.367-2.176l.766.016c.436.007.866-.009,1.281-.026,1.588-.062,3.386-.133,3.6,1.842" transform="translate(-90.287 -491.237)" fill="#4cc8ef"/>
      <path id="Tracé_2978" data-name="Tracé 2978" d="M236.72,729.273c.414,0,.883,0,1.394-.035,3.068-.185,4.81.1,5.65.921a2.293,2.293,0,0,1,.613,1.818c-.083,2.087-.033,6.081,0,8.724.017,1.343.029,2.316.02,2.63a1.047,1.047,0,0,1-.314.747c-.619.617-2,.614-3.91.608-.484,0-.985,0-1.482.008h-.034c-.3.007-.6.013-.912.013-1.96,0-4.01-.26-4.194-2.487-.207-2.5-.171-7.853-.056-10.439.111-2.494,1.554-2.5,3.225-2.508" transform="translate(-90.26 -544.796)" fill="#4cc8ef"/>
      <path id="Tracé_2979" data-name="Tracé 2979" d="M164.218,49.877c-1.593,4.155-3.038,7.918-6.95,12.3l35.06,6.5.548.1-.617,2.771a38.419,38.419,0,0,1,18.076,7.932,25.347,25.347,0,0,1,4.822,5.207l10.338-1.648.937,4.336L217.3,88.915a13.656,13.656,0,0,1,.753,4.934,2.919,2.919,0,0,1-2.384,2.858c-.759.268-.985.4-1.016.732a3.514,3.514,0,0,1-3.378,3.4,3.385,3.385,0,0,1-1.9-.473c.049,1.428-.082,3.272-.927,4.286a3.91,3.91,0,0,1-2.941,1.5,3.033,3.033,0,0,1-.644-.069c-.766-.168-2.1-.806-2.927-3.115h-.072a2.346,2.346,0,0,0-.034-.305c-.047-.147-.093-.3-.136-.456l.052-.014a62.017,62.017,0,0,0-2.027-7.634,3.7,3.7,0,0,0-3.232-1.924,1.082,1.082,0,0,0-.986.785,9.266,9.266,0,0,0,2.03,5.654c1.529,1.8,1.269,3.442.581,4.3a2.678,2.678,0,0,1-2.142.981,3.892,3.892,0,0,1-1.8-.47c-2.925-1.534-3.833-3.65-4.794-5.891a15.626,15.626,0,0,0-2.3-4.091l-8.053-1.476a107.143,107.143,0,0,1,4.526,12.856c1.915,6.834,6.589,35.666,4.5,41.149l-.131.343-1.1.009c.207.228.44.481.679.742,6.975,7.609,11.408,13.1,10.375,15.186a1.614,1.614,0,0,1-1.6.8c-.121,0-.248-.006-.381-.018a122.794,122.794,0,0,0-12.491-.5c1.8.277,4.035,1.083,4.194,4,.327,6,.222,14.348.12,22.418-.043,3.447-.084,6.7-.089,9.636v.25c0,2.282,0,3.931-3.309,4.052-1.5.055-3.341.082-5.363.082-3.306,0-7.1-.072-10.7-.211-8.763-.337-10.038-.733-10.288-1.155a.683.683,0,0,1-.068-.1c-.674-1.161-.642-13.442-.6-18.668.055-6.4.284-17.6.789-19,.549-1.526,3.128-1.886,6.448-1.84a11.647,11.647,0,0,1-1.226-1.534,7.882,7.882,0,0,0-1.274-1.532,4.809,4.809,0,0,0-.646,1.356c-.373,1.007-.757,2.038-1.636,2.018-10.962-.39-11.1-.91-11.238-1.459-.158-.613-.877-11.088-1.082-14.213l-.244,0,.18-7.256-6.988,1.095c1.054,17.226,2.151,39.881.883,43.212l-.132.346H133.4l.207.183c8.416,7.444,13.828,12.86,12.884,15.094-.261.619-.913.932-1.939.932q-.208,0-.437-.017a186.167,186.167,0,0,0-19.326-.43c-.981.03-9.479.016-18.236-.14-.784-.014-1.582-.915-2.506-1.959-.486-.548-1.389-1.569-1.707-1.588h0c-.285,0-.687.879-.927,1.405-.451.988-.923,2.014-1.877,1.981-13.407-.387-13.568-.894-13.738-1.431-.229-.721-1.412-15.029-1.407-15.121l.02-.373c-.088-1.091-.117-3.073-.086-6.729H80.37l-3.485,23.458c.75.6,1.649,1.344,1.818,1.537-.544-.083-5.057.178-5.006,0,0,0,0-.006,0-.008-.512.009-1.163.029-1.795.047l-.27.04,0-.033a8.282,8.282,0,0,1-2.019-.046,17.167,17.167,0,0,1,1.732-1.9l-3.222-21.862H35.415l-4.129,21.923A16.1,16.1,0,0,1,32.96,201.3c.051.182-4.461-.079-5.006,0,.2-.232,1.459-1.261,2.245-1.875l8.82-46.831a21,21,0,0,1-6.206-5.267c-4.5-5.6-6.591-13.575-8.044-20.635-3.237-15.737-6.8-38.859-7-43.988-.268-6.938,6.288-13.65,14.315-14.658,6.24-.783,26.034-.989,33.645-.366,4.248-8.293,8.9-14.312,13.832-17.9,4.2-3.057,8.528-4.183,12.28-3.22.061-1.078.155-2.126.279-3.118.328-2.632.578-6.386.747-10.026a3.42,3.42,0,0,1-.826.061c-1.9,0-3.543-4.881-5.581-12.757-.2-.772-.357-1.381-.464-1.744-1.143-3.887-.728-9.332,2.882-12.1,4.4-3.374,17.72-8.465,22.764-6.4,4.96,2.033,5.591,5.013,5.526,6.609-.1,2.486-2,4.86-4.717,6a24.467,24.467,0,0,1,2.3,3.21,30.805,30.805,0,0,1,1.8,3.474,4.717,4.717,0,0,1,2.271-.581,4.9,4.9,0,0,1,.507,9.771,53.752,53.752,0,0,1,.881,8.824c.112,5.978-7.476,6.987-9.97,7.318l-.33.045c-.164.983-.541,2.5-.971,4.221-.545,2.184-1.151,4.617-1.489,6.62,2.935-1.132,7.972-1.563,17.086.126l9.32,1.727a16.468,16.468,0,0,0,1.867-1.659c1.141-1.164,1.286-2.909,1.44-4.756.249-2.994.529-6.293,4.982-7.842.047-.263.095-.525.135-.8l3.494-21.139.02-.082c.028-.083.056-.18.088-.285.281-.95.941-3.174,3.54-2.879l11.363,1.5a4.061,4.061,0,0,1,2.949,1.34c.853,1.142.571,2.774.244,4.665-.035.2-.07.406-.1.6l-.93,6.337a2.24,2.24,0,0,1,1.163,1.038c.857,1.576.159,4.313-.634,6.566a1.231,1.231,0,0,1,.971.008c1.54.669,1.68,4.515.294,8.072-.176.452-.347.9-.517,1.34m-.206-8.426a.126.126,0,0,0-.051-.009c-.216,0-.83.367-1.69,2.156a27.939,27.939,0,0,1-1.349,3.013q-.355.694-.749,1.4c-.043.077-.088.155-.132.232l-.6,1.245-.535,1.115.3-.933c-.659,1.088-1.353,2.152-2.037,3.136-.123.176-.245.351-.367.521s-.25.351-.374.52c-.31.423-.613.824-.907,1.2a.622.622,0,0,1-.484.411l-.243-1.047a.461.461,0,0,0-.289.283.931.931,0,0,1,.164-.3c.18-.229.366-.472.553-.721.119-.158.237-.316.358-.481s.231-.32.348-.483a55.259,55.259,0,0,0,3.953-6.421c.282-.546.544-1.082.778-1.6s.44-1.013.612-1.485h0c.052-.161.135-.376.245-.656l.126-.317c.73-1.831,2.437-6.118,1.513-7.818a1.194,1.194,0,0,0-.383-.429,1.436,1.436,0,0,0-.513-.207c-.009,0-.017-.006-.026-.008a.972.972,0,0,0-.521.034c-.7.245-1.21,1.3-1.792,2.731-.266,1.387-2.614,5.288-5.122,9.309-.33.53-.642,1.03-.688,1.118a.5.5,0,0,0,.049-.222h-1.075c0-.18,0-.18.8-1.465.959-1.538,3.076-4.933,4.22-7.15a.678.678,0,0,1,.059-.259c.962-2.261,1.228-4.184.663-4.787-.426-.453-1.425-.227-2.187.042-.6.241-2.464,3.375-3.963,5.893-2,3.354-4.262,7.155-6.107,9.036-.084.086-.187.215-.294.352a3.16,3.16,0,0,1-1.107,1.012.4.4,0,0,1-.349.06l-2.122-.324,1.926-.68c.917-.855,3.5-3.991,3.244-4.628a.668.668,0,0,0-.369-.047,19.048,19.048,0,0,0-4.419.62c-.2.058-.4.118-.584.183-.209.073-.406.15-.594.232-3.232,1.4-3.451,3.991-3.676,6.693-.163,1.956-.331,3.979-1.744,5.42-.443.452-.852.833-1.239,1.165q-.279.239-.544.446c-.2.157-.4.3-.59.437-.682.479-1.325.845-2.014,1.236-.6.342-1.223.694-1.936,1.162l8.345,16.337L149.7,67.635l.03-.025a54.535,54.535,0,0,0,5.4-4.733c.153-.155.3-.31.451-.463s.3-.311.439-.466c4.134-4.475,5.586-8.26,7.195-12.456q.255-.666.519-1.346c1.39-3.567.871-6.438.279-6.694m-2.684-16.423c.383.025.721-.388.754-.921s-.251-.986-.634-1.011-.721.388-.754.921.251.986.634,1.01M107.154,57.3a7.193,7.193,0,0,0-.885.519A6.169,6.169,0,0,0,104.98,59a9.688,9.688,0,0,0-.849,1.26c-.481.81-.935,1.575-1.933,1.575-.26,0-.49-.006-.7-.011a5.4,5.4,0,0,0-1.7.137c-.1.891-.273,2.036-.508,3.346q-.054.3-.112.612c-.036.194-.073.39-.111.589C98.034,71.932,96.239,79.4,95.1,83.462l34.264-22.855.006.011c.832-.557,1.557-.969,2.2-1.335.344-.2.677-.385,1.009-.586l-8.242-1.527c-9.77-1.81-14.6-1.157-17.182.124m1.739-12.653c.055-.453.391-.5,1.2-.606,2.258-.3,9.13-1.214,9.036-6.232a52.082,52.082,0,0,0-.905-8.858,4.916,4.916,0,0,1-2.583-8.532,26.227,26.227,0,0,0-4.291-6.967c-3.09.682-9.942,2.538-10.7,3.319a18.969,18.969,0,0,0,.291,5.093c.526,3.93,1.071,7.994-1.664,8.96a12.014,12.014,0,0,0-1.865.943,8.874,8.874,0,0,1-3.454,1.4c-.171,3.759-.427,7.68-.768,10.415-.135,1.08-.23,2.194-.289,3.32,5.141,1.927,8.028,7.642,7.083,13.927a7.34,7.34,0,0,1,1.544-.072c.2.005.425.011.675.011.354,0,.547-.272,1.008-1.048a7.746,7.746,0,0,1,3.066-3.176c.31-2.172,1-4.956,1.619-7.426.48-1.925.894-3.586,1-4.466m9.924-24.378a3.648,3.648,0,0,0-1.846.5,3.729,3.729,0,0,0-.45.31,3.807,3.807,0,0,0-.434.408,3.853,3.853,0,0,0-1.008,2.6,3.811,3.811,0,0,0,2.914,3.728,3.68,3.68,0,0,0,.582.084c.08.005.161.012.242.012.1,0,.2-.007.294-.015a3.827,3.827,0,0,0-.294-7.633M65.682,70.186c-.215.445-.431.9-.647,1.347-.1.217-.208.433-.312.651l-.311.654c-4.25,8.941-8.664,18.913-12.6,27.81-2.033,4.594-3.962,8.952-5.55,12.438l19.257-.013c-2.474-6.955.021-18.689,1.74-26.762.346-1.624.665-3.124.908-4.414q.1-.514.176-.98c.062-.365.115-.708.158-1.024.032-.235.058-.457.077-.662l.005-.038c1.032-6.181,3.844-10.944,8.356-14.157,5.15-3.667,11.455-4.612,16.079-4.722.2,0,.39-.008.58-.009s.38,0,.564,0a37.534,37.534,0,0,1,4.762.31c.827-5.621-1.632-10.721-6.072-12.582-.175-.073-.352-.142-.533-.205l-.09-.033c-.144-.049-.29-.092-.437-.134C85.233,45.8,75.074,50.751,65.682,70.186M85.466,182.9c.014.21.029.389.047.524h54.866c.983-4.09-.032-25.449-1.05-42.315l-.033-.539q-.017-.27-.033-.539c-.529-8.664-1.048-15.989-1.276-18.914a82.65,82.65,0,0,0-2.945-15.754q-.109-.387-.222-.774t-.226-.764a105.789,105.789,0,0,0-4.413-12.028c-.072-.166-.146-.331-.219-.5s-.146-.331-.22-.5q-.78-1.732-1.617-3.416-.347-.7-.7-1.387-.346-.669-.7-1.326-.531-.986-1.08-1.949c-2.914-5.093-6.578-7.586-10.89-7.389-9.172.4-18.936,12.518-22.647,20.578-.448.973-2.536,5.46-4.561,9.629-2.11,4.345-3.238,6.5-3.9,7.563-.139.224-.258.4-.361.538-.289.387-.453.477-.6.492a.725.725,0,0,1-.119,0H81.519l-14.36.01H65.953l-20.175.014-.018.055c-2.933,8.476-1.88,17.363,2.784,23.283,5.375,6.825,15.118,9.664,28.168,8.214l7.6,0c-.029-.656.011-1.8.1-3.9.193-4.608.554-13.186-1-14.81a.493.493,0,0,0-.376-.188v-1.075a1.578,1.578,0,0,1,1.152.519c1.731,1.805,1.6,8.409,1.3,15.6-.076,1.8-.154,3.658-.076,4.121.185.307.294,1.119.327,3.552q0,.257.006.539c0,.173,0,.352,0,.539.012,2.814-.047,7.307-.177,14.509-.06,3.3-.125,6.937-.158,10.117,0,.365-.007.724-.01,1.075-.024,2.94-.012,5.369.068,6.593m58.758-67.043h.019c.939,0,1.555,1.471,2.358,4.179.053.179.113.382.131.428.659,1.629,1.165,9.141,1.707,18.129l.052-.008-.177,7.127h37.331l.283.013,1.237-.01c1.593-5.774-2.57-32.74-4.642-40.134A106.143,106.143,0,0,0,177.766,92.2c-.086-.2-.175-.4-.262-.594s-.174-.4-.262-.594c-1.3-2.9-2.706-5.694-4.19-8.287-2.914-5.093-6.579-7.584-10.89-7.389-5.522.244-11.259,4.732-15.76,10.025q-.2.236-.4.474t-.39.475a47.652,47.652,0,0,0-6.1,9.6c-.389.846-2.019,4.349-3.773,8a85.024,85.024,0,0,1,3.317,17.119c.017.215.627,8.4,1.272,18.83l7.042-1.1c-.4-6.626-.99-16.294-1.637-17.894-.034-.084-.075-.222-.165-.525a11.58,11.58,0,0,0-1.29-3.31,3.269,3.269,0,0,0-.229.671l-1.043-.263c.108-.428.394-1.565,1.215-1.582m47.359-46.224L156.4,63.113a54.156,54.156,0,0,1-6,5.334L139.021,78.7l3.1,5.812-.076.047,3.16.579c4.74-5.687,10.924-10.616,16.908-10.88,4.747-.211,8.74,2.458,11.87,7.93a96.149,96.149,0,0,1,4.535,9.055l7.926,1.452Zm-53.395,9.823-.317-.62-8.9-16.673L95.71,84.347C94.326,85.432,84.823,92,84.043,92.4a7.094,7.094,0,0,0-.832.532,4.069,4.069,0,0,1-2.313.976V92.83a3.184,3.184,0,0,0,1.694-.78,8.034,8.034,0,0,1,.965-.612c.8-.4,7.215-4.877,10.12-6.939,1.052-3.451,3.125-11.894,4.288-17.918q.052-.27.1-.532c.034-.182.067-.36.1-.536.225-1.228.4-2.321.513-3.208.028-.221.053-.433.071-.627l-.019,0a37.576,37.576,0,0,0-4.207-.27q-.281,0-.576,0t-.593.006c-4.517.08-10.8.944-15.8,4.5-4.264,3.038-6.926,7.559-7.911,13.437-.065.674-.194,1.5-.365,2.428q-.085.464-.183.963-.09.459-.19.946c-.182.891-.385,1.844-.6,2.846-1.726,8.108-4.254,19.985-1.652,26.537l14.417-.01h1.318c1.036-1.282,6.14-11.964,8.734-17.6,3.822-8.3,13.958-20.778,23.577-21.2,4.637-.2,8.558,2.34,11.655,7.562.072.122.145.243.216.368.163.285.324.574.486.863q.355.638.7,1.285c1.022,1.907,1.992,3.881,2.9,5.9l8.414-5.127.69-.42.69-.42.238-.145-2.5-4.681ZM131.106,91.23a107.162,107.162,0,0,1,4.174,11.163c1.2-2.515,2.376-5.014,3.258-6.93a47.943,47.943,0,0,1,5.894-9.371l-3.764-.69Zm84.68-5.555-1.174.187-2.827.451-1.114.178-4.3.686.792,2.356,4.477-.754,1.074-.181,3.086-.52,1.111-.187,8.234-1.387-.484-2.241Zm-.477,10.017c.9-.319,1.618-.571,1.668-1.885a12.518,12.518,0,0,0-.77-4.709l-3.165.533a52.632,52.632,0,0,1,1.455,6.4,5.69,5.69,0,0,1,.812-.337m-4.076,4.07a2.414,2.414,0,0,0,2.344-2.4,46.037,46.037,0,0,0-1.609-7.551l-4.755.8a28.5,28.5,0,0,1,1.985,7.809,1.878,1.878,0,0,0,2.034,1.34M187.574,92.83a15.586,15.586,0,0,1,2.8,4.746c.922,2.149,1.719,4.005,4.306,5.362a2.025,2.025,0,0,0,2.6-.231c.453-.566.543-1.634-.561-2.934a10.209,10.209,0,0,1-2.284-6.457l0-.065.018-.062a2.175,2.175,0,0,1,1.915-1.619,4.8,4.8,0,0,1,4.293,2.464,58.058,58.058,0,0,1,2.209,8.34c.49,1.512,1.271,2.453,2.228,2.662a2.663,2.663,0,0,0,2.528-1.073c1.017-1.222.649-4.588.527-5.288q-.01-.049-.018-.1l.459-.09h-.467c0-2.873-3.129-11.967-5.384-13.82l.683-.831a8.908,8.908,0,0,1,1.813,2.43l5.362-.854.363-.349a3.17,3.17,0,0,1,.217.256l2.769-.441c-4.245-5.917-12.5-10.805-21.923-12.285l-4.52,20.3Zm-3.285,109.451c2.274-.083,2.274-.7,2.273-2.978v-.252c0-2.938.046-6.2.09-9.648.1-8.053.206-16.379-.119-22.346-.127-2.324-1.835-2.92-4.551-3.129-1.354-.1-2.99-.134-4.669-.134-1.045,0-2.1.012-3.124.024,1.418,1.472,1.377,4.223,1.34,6.567-.006.376-.012.745-.012,1.1,0,.98.013,22.8.033,23.91.071,4.062.031,5.988-.39,6.938,3.285.051,6.523.042,9.128-.054m-25.176-37.614c-.326.906-.637,8.842-.723,18.46-.095,10.508.126,16.9.406,18.151l.095.017.026.128c1.2.353,7.548.722,14.191.872.159-.033.305-.057.435-.076.562-.085.621-.095.752-.662a33.312,33.312,0,0,0,.182-6.141c-.02-1.149-.033-23.709-.033-23.929,0-.362.006-.737.012-1.118.058-3.722-.113-6.37-2.861-6.524l-.622,0c-.559,0-1.39-.055-2.353-.119-2.906-.193-8.954-.594-9.506.939M84.335,175.23c.027-2.576.079-5.882.156-10.136.056-3.1.117-6.493.151-9.528-.3.053-.7.1-1.214.146l-2.9,19.518ZM72.444,199.481c.5.394,1.163.93,1.631,1.328.613-.68,1.753-1.788,1.748-1.851a.415.415,0,0,1,.087.053l6.422-43.225c-1.872.1-4.814.164-9.461.164-1.962,0-4.23-.011-6.847-.034ZM35.618,176.459H67.964l-3.029-20.553c-2.506-.024-5.315-.059-8.468-.106-1.72-.025-2.962-.044-3.454-.044a29.225,29.225,0,0,1-13-2.64Zm-3.4-107.346c-7.5.941-13.622,7.146-13.375,13.55.2,5.093,3.75,28.119,6.979,43.813,1.427,6.935,3.472,14.755,7.829,20.178a19.9,19.9,0,0,0,6.135,5.129l.463.087-.027.141a27.91,27.91,0,0,0,12.79,2.671c.5,0,1.746.018,3.47.043,2.033.03,5.336.079,8.984.112l.39-.057.009.061c7.825.069,17.066.062,18.789-.349.013-1.391.019-2.681.015-3.805l-.511.039-.041,0c-1.267,0-3.28.019-5.611.041-3.179.03-6.936.066-10.163.066-1.111,0-2.16,0-3.1-.014-8.126-.088-12.732-.721-16.927-4.08-.645-.517-1.141-.909-1.536-1.222a21.176,21.176,0,0,1-3.025-2.738c-.323-.332-.72-.741-1.225-1.256-7.64-7.795-14.66-35.635-16.967-44.783-1.538-6.1-3.022-14.892,1.829-20.8,1.971-2.4,4.684-3.378,9.317-4.438,3.885-.89,20.651-1.01,27.413-.551.2-.413.4-.827.593-1.235q.244-.506.49-1c-7.851-.578-26.906-.368-32.987.395" transform="translate(-17.761 0)" fill="#090954"/>
    </g>
  </g>
</svg>
