<svg xmlns="http://www.w3.org/2000/svg" xmlns:xlink="http://www.w3.org/1999/xlink" width="110.261" height="110.259" viewBox="0 0 110.261 110.259">
  <g id="spark-blue">
    <path d="M12.155,92.273a12.155,12.155,0,0,1-8.6-20.75L20.217,54.866a12.155,12.155,0,1,1,17.19,17.19L20.75,88.713a12.121,12.121,0,0,1-8.6,3.56" transform="translate(0 17.986)" fill="#4cc8ef"/>
    <path d="M63.462,40.967a12.155,12.155,0,0,1-8.6-20.75L71.524,3.56a12.155,12.155,0,0,1,17.19,17.19L72.057,37.407a12.121,12.121,0,0,1-8.6,3.56" transform="translate(17.987 0)" fill="#4cc8ef"/>
    <path d="M28.812,40.967a12.121,12.121,0,0,1-8.6-3.56L3.56,20.75A12.155,12.155,0,0,1,20.75,3.56L37.407,20.217a12.155,12.155,0,0,1-8.6,20.75" transform="translate(0 0)" fill="#4cc8ef"/>
    <path d="M80.119,92.273a12.121,12.121,0,0,1-8.6-3.56L54.867,72.056a12.155,12.155,0,1,1,17.19-17.19L88.714,71.523a12.155,12.155,0,0,1-8.6,20.75" transform="translate(17.987 17.986)" fill="#4cc8ef"/>
  </g>
</svg>
