<svg id="Calque_1" data-name="Calque 1" xmlns="http://www.w3.org/2000/svg" viewBox="0 0 1400 132.6">
<defs><style>.cls-1{fill:#fff;}</style></defs>
<path class="cls-1" d="M66,.8H52c2.5-.2,5-.4,7.5-.4Z"/>
<g id="Rectangle_236" data-name="Rectangle 236" transform="translate(0 -1)">
  <path class="cls-1" d="M0,.8H52c-27.6,3-49.3,22-52,45.7Z"/>
  <path class="cls-1" d="M1400,.4V133h-.1v-2.3a40.3,40.3,0,0,0-.3-4.9c-2.9-25.9-28.4-46.1-59.5-46.1L66,.8H52c2.5-.2,5-.4,7.5-.4Z"/>
  <path class="cls-1" d="M52,.8c-27.6,3-49.3,22-52,45.7V.8Z" />
  <path class="cls-1" d="M1399.6.8v125c-2.9-25.9-28.4-46.1-59.5-46.1L66,.8Z"/>
</g></svg>