<svg xmlns="http://www.w3.org/2000/svg" xmlns:xlink="http://www.w3.org/1999/xlink" width="616.985" height="616.983" viewBox="0 0 616.985 616.983">
  <defs>
    <clipPath id="clip-path">
      <rect id="Rectangle_236" data-name="Rectangle 236" width="616.985" height="616.983" fill="#e2e2e2"/>
    </clipPath>
  </defs>
  <g id="pattern" clip-path="url(#clip-path)">
    <path id="Tracé_4983" data-name="Tracé 4983" d="M72.892,162.862c13.065-11.373,27.1-34.478,54.077-42.7,33.52-10.225,37.235-4.223,66.3,1.45,30.365,5.928,40.649-4.235,57.584,2.541s20.81,19.356,29.519,44.64,21.05,36.9,30.728,41.449,23.471,6.46,35.325,17.953,24.317,24.558,27.825,36.171c2.885,9.551,1.695,33.632,19.476,27.825s7.26-25.282-.481-41.373-26.738-35.932-45.851-50.447-26.252-9.8-36.9-19.6-12.945-28.914-22.5-46.455c-5.8-10.649-8.954-18.147-19-26.373s-33.024-9.8-52.383-8.348c-18.714,1.4-19.6.846-30.606-2.058s-29.279-7.5-47.062-4.233c-26.67,4.9-40.286,18.267-49.479,26.373s-21.534,20.81-36.173,30.849S7.767,174.232,4.258,186.934s9.355,26.255,18.913,27.586,18.858-2.357,32.3-6.656c10.208-3.265,28.954-12.225,35.93-18.573,19.476-17.72,49-20.261,59.279-24.495s26.01-7.259,38.106-7.863,30.368,3.385,38.594,9.313,14.637,24.8,19.962,31.82,8.832,12.822,6.411,19.113S242.866,224.8,227.138,229.4s-26.856,11.372-32.18,16.211-22.621,17.058-36.9,31.212-28.19,29.517-34.238,42.342-5.36,18.862,2.338,23.011c7.333,3.951,13.436-.561,17.792-6.973s11.081-29.654,34.915-51.188c16.2-14.633,40.647-32.474,58.19-38.041s41.979-10.649,42.825-23.351S270.448,200,264.4,191.653c-7.325-10.106-16.089-35.2-21.776-39.921-8.851-7.344-24.788-10.877-41.618-11.373a340.186,340.186,0,0,0-38.589.726c-28.067,2.418-66.176,17.3-76.942,24.921S62.784,179.639,54.3,184.4s-25.689,9.615-26.052,4.9,31.575-15.059,44.64-26.43" transform="translate(4.071 102.343)" fill="#e2e2e2"/>
    <path id="Tracé_4984" data-name="Tracé 4984" d="M124.276,214.331c22.019-17.9,38.87-17.771,50.515-25.647,8.224-5.567,8.952-13.067,5.805-17.663s-15.243-4.358-20.567-.967-15.969,13.791-23.709,17.419-32.9,13.067-38.467,29.76c-5.208,15.625-1.7,21.534-4.6,31.214S82.6,266.833,74.378,262.237s8.711-24.921-12.339-38.229-27.584-14.276-25.406-21.293,10.988-8.057,37.019-13.791c26.375-5.808,57.827-23.513,74.039-30.026s34.116-10.621,39.68-8.2,5.322,8.211,8.469,13.778,7.487,8.374,13.55,6.3c7.511-2.566,8.467-14.274,2.9-21.776s-14.276-14.274-28.793-14.274c-17.182,0-41.66,4.968-62.909,17.784a140.364,140.364,0,0,1-33.046,14.9c-11.425,3.429-27.953,8.42-42.928,10.385C15.1,181.665,6.784,196.65,10.26,207.554c5.324,16.695,31.324,19.668,37.5,28.551,11.613,16.695-6.534,37.264,21.776,42.1,22.443,3.839,36.051-12.824,41.616-25.649s-4.755-23.69,13.12-38.226" transform="translate(10.569 149.591)" fill="#e2e2e2"/>
    <path id="Tracé_4985" data-name="Tracé 4985" d="M320.36,133.074C306.569,147.23,280.982,171,255.215,166.282s-34.478-22.319-40.649-47.362-9.437-52.081-33.208-66.053-42.28.907-42.643,19.417-1.089,39.379,9.617,61.516,14.335,63.7,33.571,81.115c11.2,10.14,25.594,16.653,38.108,20.508,8.984,2.767,16.463,4.814,23.591,2.843,17.638-4.879,27.763-9.739,43.188-11.736,8.131-1.051,27.175.521,26.314-14.7-.544-9.619-5.424-12.5-14.154-11.8-6.715.544-11.423,5-19.054,7.26a243.989,243.989,0,0,1-28.492,6.534c-18.554,3.018-28.852,7.439-44.46-5.082s-23.226-30.849-28.671-47.725-8.165-30.125-12.7-40.468-11.432-43.734-3.448-47,20.3,10.82,25.225,22.139c9.074,20.867,6.658,43.008,16.876,60.79,9.072,15.787,28.755,34.763,64.785,31.756,27.031-2.256,53.531-30.486,67.684-40.286s29.215-23.119,45.912-6.023,9.133,47.761-.182,54.294c-8.752,6.137-19.236,11.25-33.753,6.713s-22.139,2.541-22.321,11.615,7.439,14.88,21.593,16.332,57.344-4.174,64.422-45.186-16.876-66.053-35.749-71.135-42.462,4.356-56.255,18.51" transform="translate(153.832 52.586)" fill="#e2e2e2"/>
    <path id="Tracé_4986" data-name="Tracé 4986" d="M70.244,357.016c16.855,3.683,26.5,11.252,46.459,3.448,8.083-3.157,16.6-15.363,25.588-25.223,7.409-8.127,15.916-15.4,23.228-23.773,13.791-15.787,25.155-58.811,47.725-79.665a181.76,181.76,0,0,1,32.934-23.617c12.438-7.046,28.181-14.8,38.564-17.212,20.325-4.719,19.962,3.628,36.293,2.178,7.061-.627,11.25-5.805,12.158-12.7,1.515-11.505-8.346-18.508-25.949-17.239s-51.994,13.92-80.823,31.393a177.457,177.457,0,0,0-21.34,14.665c-12.339,10.212-18.229,19.721-31.577,39.594-16.334,24.317-26.658,45.334-41.194,64.24-7.291,9.488-14.743,17.811-23.591,23.045-12.884,7.625-32.664,3.085-47.544-2.9s-37.211-6.171-49.55-13.43c-4.6-2.7-8-6.063-11.626-9.437v24.039c13.793,11.729,24.045,11.522,42.656,16.612,8.2,2.243,16.975,3.668,27.588,5.987" transform="translate(0 181.052)" fill="#e2e2e2"/>
    <path id="Tracé_4987" data-name="Tracé 4987" d="M307.723,227.74c-12.909-4.693-29.393-3.811-37.741,2.178s-11.066,18.328-2.718,23.228,16.876-.544,21.234-4.535,14.506-5.989,31.383,11.613a51.7,51.7,0,0,0,5.979,5.708V241.894c-5.808-5.685-10.621-11.421-18.136-14.154" transform="translate(291.126 249.535)" fill="#e2e2e2"/>
    <path id="Tracé_4988" data-name="Tracé 4988" d="M113.694,396.337c-7.941-4.9-14.88-10.883-22.5-18.142s-11.655-23.363-5.445-34.113c9.437-16.33,37.747-31.21,54.44-50.445s16.066-43.943,25.527-55.862,32.18-26.883,45.608-29.061,20.447,3.6,22.623,14.127,3.872,17.087,12.582,19.626c7.736,2.256,12.706-9.083,11.092-17.767-2.44-13.1-6.736-29.053-33.955-32.678s-50.447,14.152-64.6,27.58-22.053,45.2-36.3,62.06c-17.782,21.053-35.93,32.3-49.358,45s-13.065,35.557-9.8,43.54c2.634,6.436,20.415,23.944,29.684,34.105h27.143a17.5,17.5,0,0,0-6.742-7.973" transform="translate(68.52 212.673)" fill="#e2e2e2"/>
    <path id="Tracé_4989" data-name="Tracé 4989" d="M101.674,9.931c2.967-3,3.33-6.3,2.144-9.931H76.677a36.466,36.466,0,0,1,4.885,5.983c4.719,7.312,14.3,9.809,20.111,3.948" transform="translate(85.136)" fill="#e2e2e2"/>
    <path id="Tracé_4990" data-name="Tracé 4990" d="M103.931,267.292c-5.263-3.811-12.884-1.089-15.245,2.359s-7.62,9.8-2.357,19.78c1.918,3.64,15.061,3.993,21.413-3.448s1.452-14.878-3.811-18.691" transform="translate(93.344 294.727)" fill="#e2e2e2"/>
    <path id="Tracé_4991" data-name="Tracé 4991" d="M216.722,296.019c-14.7,6.168-17.421-5.443-19.962-8.711s-8.61-16.33-20.238-24.495-21.724.241-32.974,18.387-17.56,29.154-24.638,34.234-29.034,28.31-19.78,38.292c4.9,5.282,17.786,1.087,23.591-5.445s8.709-18.512,14.517-25.767,16.15-20.145,20.143-24.864,5.132-11.529,10.647-10.4c7.983,1.633,7.156,13,14.405,20.956,5.706,6.263,13.441,11.478,24.309,10.678,24.678-1.813,35.021-14.517,41.917-31.575s9.8-35.928,6.9-59.883c-1.636-13.474-.918-28.04-3.63-37.382-2.11-7.268-6.369-11.048-14.88-10.161-8.711.905-11.252,12.16-9.619,20.325s9.435,21.4,8.348,44.724-4.356,44.918-19.054,51.089" transform="translate(107.58 199.585)" fill="#e2e2e2"/>
    <path id="Tracé_4992" data-name="Tracé 4992" d="M194.731,198.876c-8.711-1.935-12.824,5.08-13.31,10.161s1.937,21.293,10.406,22.5c3.951.561,12.708-6.776,14.338-11.615,1.019-3.026,2.11-10.4-1.032-15.483-1.885-3.052-6.268-4.647-10.4-5.567" transform="translate(201.371 220.452)" fill="#e2e2e2"/>
    <path id="Tracé_4993" data-name="Tracé 4993" d="M202.836,282.889c6.05-10.889,18.389-23.228,23.226-35.567s-1.249-26.09-11.128-23.712c-13.065,3.146-7.26,23.226-11.615,30.728s-22.984,25.647-30,31.936S152.15,302,162.431,312.191c15.416,15.277,34.356-18.415,40.4-29.3" transform="translate(176.329 247.98)" fill="#e2e2e2"/>
    <path id="Tracé_4994" data-name="Tracé 4994" d="M285.782,14c-.726,8.469-8.952,14.044-19.839,16.463S242.231,41.835,231.827,47.4,193.6,62.643,177.87,74.015s-26.856,30.245-32.664,51.3-16.695,28.065-28.551,33.147-32.18,7.983-45.245,15.486-30.393,20.812-37.988,30.728c-8.709,11.37-15.844,16.667-22.26,22.984-7.863,7.743-6.92,15.971-1.45,20.81,7.587,6.715,14.758,0,19.839-5.565S46,219.672,55.2,207.816s32.951-18.965,53.229-23.952c14.762-3.632,45.252-7.962,52.026-34.82s15.481-44.3,35.563-58.817,72.1-33.147,88.072-41.375,35.082-23.589,25.164-40.835A43.968,43.968,0,0,0,303.631,0H273.787c6.749,6.534,12.21,11.489,12,14" transform="translate(6.036)" fill="#e2e2e2"/>
    <path id="Tracé_4995" data-name="Tracé 4995" d="M146.4,309.75c-5.808-12.01-4.6-35.232.481-34.989s9.437,11.617,13.8,22.988S176.161,325.092,196.727,328s30.954-1.182,45-8.469c8.389-4.352,16.729-8.621,21.067-13.821,2.767-3.315,3.25-8.53-.561-13.958-5.3-7.547-14.726-6.356-20.533-1.036s-15.7,19.136-35.54,15.266-26.375-17.666-29.762-28.8-18.147-21.291-25.161-25.4-18.149-5.563-25.647,12.1a63.839,63.839,0,0,0-4.839,25.649c.352,10.427-.815,19.67,8.711,32.894,4.782,6.648,10.953,12.858,16.311,17.938h29.842c-10.3-12.339-24.379-20.6-29.217-30.608" transform="translate(134.046 276.625)" fill="#e2e2e2"/>
    <path id="Tracé_4996" data-name="Tracé 4996" d="M362.059,428.983c-11.432-8.893-38.469-12.7-56.8-.91-17.993,11.584-32.48,25.4-53.712,16.334-18.693-7.985-19.417-21.595-26.858-35.567s-8.165-29.762-.726-61.7,12.521-60.79,9.98-84.924c-1.429-13.595-3.735-29.456-8.165-43.07-3.588-11.026-1.325-21.882.181-26.8,3.448-11.25,12.029-21.557,31.212-24.06,21.413-2.8,38.29,10.923,62.97,9.144s45.739-29.988,52.5-25.066c7.983,5.808-5.143,26.738-13.126,32.543s-15.243,8.346-23.773,7.439-29.215-.181-27.584,13.793,23.775,9.98,38.29,3.448,31.486-8.3,40-24.267c6-11.259,10.936-24.442,10.63-32.716-.407-10.923-9.437-21.774-19.358-22.566-16.3-1.3-32.075,11.584-45.427,21.477-11.917,8.834-22.561,7.625-44.338,2.06s-59.279-14.762-72.1,12.1-15.34,34.428-8.711,59.279c6.774,25.4,5.506,45.2,3.87,62.909-1.45,15.726,5.451,18.324-7.5,59.762-7.259,23.228-14.4,39.619,5.744,76.822s45,45.363,67.144,39.74,35.2-22.139,45.729-22.865,27.4-.555,29.034,8.7c1.576,8.929-6.308,14.69-16.482,22.673h30.454a25.118,25.118,0,0,0,3.085-5.979c5.082-15.787,5.261-28.84-6.171-37.733" transform="translate(217.746 144.289)" fill="#e2e2e2"/>
    <path id="Tracé_4997" data-name="Tracé 4997" d="M348.895.918c-10.708,8.709-25.767,22.144-44.821,21.6s-27.766-14.333-49.9-17.782S217.7,8.186,205.536,15.08,183.4,29.236,182.489,36.312s1.633,9.256,6.715,11.8c6.994,3.5,17.421-4.9,20.143-9.8s14.335-14.519,23.228-15.789S255.983,24.7,266.51,31.6s20.5,19.407,45,15.777C333.238,44.154,369.088,17.421,380.469,0H350.015c-.371,0-.745.61-1.121.918" transform="translate(202.422)" fill="#e2e2e2"/>
    <path id="Tracé_4998" data-name="Tracé 4998" d="M202.478,279.992c-8.167,0-14.574,9.163-13.485,13.519s4.6,11.526,13.128,11.522,13-3.448,13.909-10.887-5.624-14.158-13.552-14.154" transform="translate(209.709 310.882)" fill="#e2e2e2"/>
    <path id="Tracé_4999" data-name="Tracé 4999" d="M298.54,340.555c-26.5,1.817-48.635,21.053-55.529,13.793s-3.993-29.4.361-41.736,9.8-42.827,6.9-59.522-10.887-48.269-5.08-60.611,24.473-10.693,22.3-25.368c-1.908-12.846-17.581-8.986-27.257-1s-18.389,24.435-15.971,42.342,7.985,41.616,7.5,63.476c-.469,21.19-16.45,56.774-14.76,75.889s9.437,28.553,23.954,29.519,29.277-1.671,44.522-9.427,29.99-9.931,42.329-6.059c5.833,1.83,25.879,16.954,48.381,24.073V365.86c-4.356-2.887-7.952-6.506-14.587-10.058-16.252-8.714-41.613-16.716-63.059-15.247" transform="translate(240.8 176.279)" fill="#e2e2e2"/>
    <path id="Tracé_5000" data-name="Tracé 5000" d="M63.65,285.069c15.243,8.709,30.186,26.136,33.09,32.362s12.341,16.4,19.964,13.5,10.009-10.735,4.037-20.78c-4.147-6.973-10.993-14-21.519-25.619s-25.29-24.26-62.556-22.082C14.614,263.735,6.534,261.083,0,256.9v20.063c1.452.411,2.661.8,4,1.152,24.56,6.472,52.026,2.6,59.648,6.956" transform="translate(0 285.24)" fill="#e2e2e2"/>
    <path id="Tracé_5001" data-name="Tracé 5001" d="M211.106,146.577c-4.535-7.622-14.483-2.288-20.289.979s-5.445,12.487-3.269,15.751c3.7,5.552,12.7,8.2,19.964,4.21s7.082-15.083,3.594-20.941" transform="translate(206.616 158.416)" fill="#e2e2e2"/>
    <path id="Tracé_5002" data-name="Tracé 5002" d="M255.855,121.6c5.082-2.9,5.082-14.519,2.421-18.873s-17.1-3.746-21.918,5.805c-2.56,5.082-2.52,8.711,1.593,13.067s12.822,2.9,17.9,0" transform="translate(260.498 111.18)" fill="#e2e2e2"/>
    <path id="Tracé_5003" data-name="Tracé 5003" d="M310.295,183.323c6.865,4.029,18.63,1.144,18.63-17.334s4.752-42.591-9.313-68.075c-10.284-18.632-24.72-22.661-39.077-31.212-11.373-6.776-32.288-6.133-31.051,9.935.967,12.582,19.679,11.839,29.6,14.017s22.5,10.647,27.339,25.889,7.983,25.8,2.661,37.338-9.919,22.91,1.209,29.441" transform="translate(276.95 69.54)" fill="#e2e2e2"/>
    <path id="Tracé_5004" data-name="Tracé 5004" d="M267.154,189.088c.483-7.743-7.5-9.921-15.483-12.1s-10.948,6.16-12.1,12.1c-.76,3.925,2.9,9.678,8.469,13.793s18.63-6.05,19.113-13.793" transform="translate(265.893 196.124)" fill="#e2e2e2"/>
    <path id="Tracé_5005" data-name="Tracé 5005" d="M240.2,308.376c5.917,3.358,15.49.131,21.048-6.048,5.789-6.432,7.952-16.781,15.728-24.68,15.241-15.481,29.76-13.546,48.873-25.4,23.116-14.338,21.053-40.647,18.389-52.5s-15-23.838-30.969-24.193-31.214,26.5-36.779,34.483-13.308,10.761-21.534,16.328c-3.49,2.359-6.531,8.467-1.45,14.247,3.374,3.837,6.979,5.806,18.13,0s22.76-29.734,29.777-37.961,14.032-12.1,19.839-5.806,6.291,19.839-.483,31.454-30.488,19.356-43.31,25.731-28.551,23.625-33.974,29.433S231.247,303.3,240.2,308.376" transform="translate(261.879 194.909)" fill="#e2e2e2"/>
    <path id="Tracé_5006" data-name="Tracé 5006" d="M9.793,274c5.445,11.978,20.325,10.526,36.293,14.154s34.478,1.815,46.455-8.346,15.342-31.381,6.534-34.842c-10.163-3.993-16.695,11.976-24.68,21.776s-31.938,8.346-44.277.361-6.9-48.113-5.082-56.825,2.9-22.656-6.894-22.3S4.349,199.238,6.666,206.863,6.89,223.918,4.819,235.8A67.863,67.863,0,0,0,9.793,274" transform="translate(4.382 208.718)" fill="#e2e2e2"/>
    <path id="Tracé_5007" data-name="Tracé 5007" d="M44.779,221.9c-.363-9.952-2.9-15.741-10.887-14.479s-19.6,14.69-6.534,24.488c5.236,3.927,17.784-.059,17.421-10.009" transform="translate(23.836 230.119)" fill="#e2e2e2"/>
    <path id="Tracé_5008" data-name="Tracé 5008" d="M267.058.388c-9.439-.726-12.584,9.165-14.276,19.084s-5.08,30.486-20.325,31.938S193.02,64.717,177.534,76.573s-21.293,35.084-21.776,51.053.728,32.421-3.628,37.986-14.278,8.226-27.1,5.082-12.822-12.339-14.274-16.937-2.421-9.919-13.308-9.919c-11.1,0-12.582,13.55-8.711,22.017s18.389,21.774,32.182,22.017,41.613.483,51.777-9.678c5.951-5.953,3.284-21.437,2.9-37.5a124.112,124.112,0,0,1,3.387-29.76c3.63-14.274,14.757-25.647,27.825-33.632s29.76-5.808,39.68-9.678S265.364,53.83,267.3,44.878s1.935-17.18,6.774-27.827S273.811.907,267.058.388" transform="translate(96.38 0.389)" fill="#e2e2e2"/>
    <path id="Tracé_5009" data-name="Tracé 5009" d="M104.144,82.244c9.072,5.08,16.695-1.089,19.959-9.032s-4.546-18.189-12.7-20c-4.468-.992-10.524,5.082-12.339,9.8s-3.993,14.154,5.082,19.236" transform="translate(108.193 58.958)" fill="#e2e2e2"/>
    <path id="Tracé_5010" data-name="Tracé 5010" d="M388.833,70.87c-12.1-10.647-21.289-22.745-47.906-17.906s-42.584,31.454-52.745,45.045-28.551,30.931-47.906,31.414-27.1-22.26-27.521-36.03-1.032-47.2-11.877-57.365-25.339-4.073-25.448,5.322c-.12,10.524,5.808,13.791,10.526,20.325s5.806,24.281,6.171,43.188,7.452,40.636,25.961,48.928,48.438-14.449,64.77-26.063,27.221-26.858,38.471-42.1,34.8-11.976,50.4-5.808,25.451,22.5,31.621,30.851,13.534,18.51,18.25,27.945c.2.393.6.779.6,1.165V108.164A84.766,84.766,0,0,1,414.189,97c-9.88-15.726-20.548-21.9-25.356-26.13" transform="translate(194.781 34.161)" fill="#e2e2e2"/>
    <path id="Tracé_5011" data-name="Tracé 5011" d="M22.372,109.99c7.211-4.693,2.556-19.839-6.882-27.1A116.193,116.193,0,0,1,0,67.442V99.059c5.082,8.965,13.46,16.731,22.372,10.931" transform="translate(0 74.883)" fill="#e2e2e2"/>
    <path id="Tracé_5012" data-name="Tracé 5012" d="M204.237,57.183c-3.993,6.534-2.724,15.692,6.9,20.367,6.443,3.132,17.782-4.761,19.78-10.024s-4.176-15.969-9.891-17.782-12.793.907-16.786,7.439" transform="translate(224.408 54.62)" fill="#e2e2e2"/>
    <path id="Tracé_5013" data-name="Tracé 5013" d="M259,62.934c6.35,2.541,10.706,3.811,15.785,0,6.673-5.006,4.539-16.513-2.541-21.776s-19.109-9.009-29.76-13.791c-17.782-7.983-35.93-1.089-41.373,4.717s-6.614,16.152,1.37,19.238,13.871-1.815,18.408-6.715,19.24-.726,23.956,2.9,7.8,12.884,14.154,15.424" transform="translate(218.463 26.369)" fill="#e2e2e2"/>
    <path id="Tracé_5014" data-name="Tracé 5014" d="M29.488,145.016c9.608,8.327,25.427,10.165,39.944,7.262s22-7.262,37.73-13.067S132.326,119.126,135.715,108s.969-39.678,2.421-52.5,4.113-19.113,10.644-27.1,7.745-16.212,0-22.988-18.63.969-21.774,7.019-5.808,34.356-6.534,45.486-1.452,30.971-5.806,44.038-28.31,28.065-44.522,30.726-25.887-4.4-34.6-12.822S19.647,99.7,11.341,78A38.561,38.561,0,0,0,0,61.913v41.449c6.534,14.918,17.727,31.463,29.488,41.654" transform="translate(0 3.081)" fill="#e2e2e2"/>
    <path id="Tracé_5015" data-name="Tracé 5015" d="M270.514,19.672c-9.195,2.421-15.422,10.108-13.242,18.818,1.26,5.046,9.528,7.88,20.322,5.082,5.972-1.547,21.534,2.2,25.647,4.113,10.4,4.839,20.071,10.653,24.91,27.584a95.8,95.8,0,0,0,3.661,10.125V43.943c-9.435-8.566-21.329-13.346-28.1-17.054-10.161-5.565-24.007-9.636-33.2-7.217" transform="translate(285.171 21.051)" fill="#e2e2e2"/>
    <path id="Tracé_5016" data-name="Tracé 5016" d="M60.839,78.122c-2.178,7.985-10.524,20.69-18.873,15.608S30.353,74.5,33.62,63.972,37.978,32.4,37.165,23.325,31.345,7.156,23.089,10.36c-7.622,2.957-4.47,12.966-3.381,18.406s.736,17.44-4.115,35.331c-5.806,21.413,3.75,36.536,17.906,43.8s29.3,4.32,39.68-13.069c9.1-15.245,8.654-39.571,7.62-58.806C80.313,26.945,75.335,12.339,68.451,0H45.374c7.008,10.161,11.871,22,15.1,34.2,3.9,14.722,2.541,35.937.363,43.92" transform="translate(15.397)" fill="#e2e2e2"/>
    <path id="Tracé_5017" data-name="Tracé 5017" d="M0,285.244V300.27H10.927c-.3-5.808-5.12-12.337-10.927-15.026" transform="translate(0 316.714)" fill="#e2e2e2"/>
    <path id="Tracé_5018" data-name="Tracé 5018" d="M285.641,294.981a26.978,26.978,0,0,0-1.532,5.911H301.53V285.867a10.626,10.626,0,0,0-3.066-1.072c-4.649-1.032-10.934,5.278-12.822,10.187" transform="translate(315.453 316.091)" fill="#e2e2e2"/>
    <path id="Tracé_5019" data-name="Tracé 5019" d="M10.144,4.7A11.253,11.253,0,0,0,10.927,0H0V15.382C4.356,13.818,8.137,9.577,10.144,4.7" fill="#e2e2e2"/>
    <path id="Tracé_5020" data-name="Tracé 5020" d="M284.189,0c-.6,5.08.395,10.5,6.806,14.091,3.864,2.165,7.713,2.374,10.615,1.292V0Z" transform="translate(315.374)" fill="#e2e2e2"/>
    <path id="Tracé_5021" data-name="Tracé 5021" d="M148.852,12.908c-1.935,4.883-10.161,6.424-24.438,8.842s-34.841,16.94-42.827,24.2S64.893,70.87,74.087,78.37c12.027,9.811,18.147-12.58,22.986-20.325S116.914,36.514,133.852,35.3s35.325-8.239,38.469-18.157c2.857-9.011-1.27-12.791-7.31-17.146H137.684a25.411,25.411,0,0,0,3.425,1.418c6.531,2.661,9.678,6.607,7.743,11.491" transform="translate(77.881 -0.001)" fill="#e2e2e2"/>
    <path id="Tracé_5022" data-name="Tracé 5022" d="M28.3,277.105c-8.629.048-17.313,5.727-16.937,10.159,1.209,14.278,22.623,5.434,32.18,16.2a52.044,52.044,0,0,1,4.617,5.841H71.241a75.024,75.024,0,0,0-11.725-16.5c-7.046-7.249-19.732-15.768-31.212-15.7" transform="translate(12.608 307.676)" fill="#e2e2e2"/>
    <path id="Tracé_5023" data-name="Tracé 5023" d="M135.528,303.374c-7.017-4.6-11.858-10.877-16.937-15.958s-15.969-9.448-21.291-2.433c-7.462,9.836,4.966,16,12.786,19.632h27.327c-.61-.726-1.241-.821-1.885-1.241" transform="translate(105.482 312.368)" fill="#e2e2e2"/>
  </g>
</svg>
